{
  "source": "C:\\Users\\Peter\\Desktop\\stuff\\MIUN\\quantitative_research\\video_compression\\videos\\BVI-HD\\BVI-HD_CDVL_videos\\ORIG\\Rowing_1920x1080_30fps.mp4",
  "output": "C:\\Users\\Peter\\Desktop\\stuff\\MIUN\\quantitative_research\\video_compression\\compressed_videos\\BVI-HD\\hevc\\2.5\\Rowing_1920x1080_30fps_hevc.mp4",
  "codec": "hevc",
  "ok": "Input #0, mov,mp4,m4a,3gp,3g2,mj2, from 'C:\\Users\\Peter\\Desktop\\stuff\\MIUN\\quantitative_research\\video_compression\\videos\\BVI-HD\\BVI-HD_CDVL_videos\\ORIG\\Rowing_1920x1080_30fps.mp4':\n  Metadata:\n    major_brand     : isom\n    minor_version   : 512\n    compatible_brands: isomiso2avc1mp41\n    encoder         : Lavf54.28.101\n  Duration: 00:00:05.00, start: 0.000000, bitrate: 259220 kb/s\n  Stream #0:0[0x1](und): Video: h264 (High 4:4:4 Predictive) (avc1 / 0x31637661), yuv420p(progressive), 1920x1080, 259216 kb/s, 30 fps, 30 tbr, 30 tbn (default)\n    Metadata:\n      handler_name    : VideoHandler\n      vendor_id       : [0][0][0][0]\n[out#0/mp4 @ 00000224221cab00] Codec AVOption b:a (set bitrate (in bits/s)) has not been used for any stream. The most likely reason is either wrong type (e.g. a video option with no video streams) or that it is a private option of some decoder which was not actually used for any stream.\nStream mapping:\n  Stream #0:0 -> #0:0 (h264 (native) -> hevc (libx265))\nPress [q] to stop, [?] for help\n[libx265 @ 0000022422c30bc0] Unknown option: \"aq-mode.\nx265 [info]: HEVC encoder version 4.1+190-8f11c33ac\nx265 [info]: build info [Windows][GCC 15.1.0][64 bit] 10bit\nx265 [info]: using cpu capabilities: MMX2 SSE2Fast LZCNT SSSE3 SSE4.2 AVX FMA3 BMI2 AVX2\nx265 [info]: Main 10 profile, Level-4 (Main tier)\nx265 [info]: Thread pool created using 12 threads\nx265 [info]: Slices                              : 1\nx265 [info]: frame threads / pool features       : 3 / wpp(17 rows)\nx265 [info]: Coding QT: max CU size, min CU size : 64 / 8\nx265 [info]: Residual QT: max TU size, max depth : 32 / 1 inter / 1 intra\nx265 [info]: ME / range / subpel / merge         : star / 57 / 3 / 3\nx265 [info]: Keyframe min / max / scenecut / bias  : 25 / 250 / 40 / 5.00 \nx265 [info]: Lookahead / bframes / badapt        : 25 / 4 / 2\nx265 [info]: b-pyramid / weightp / weightb       : 1 / 1 / 0\nx265 [info]: References / ref-limit  cu / depth  : 4 / on / on\nx265 [info]: AQ: mode / str / qg-size / cu-tree  : 2 / 1.0 / 32 / 1\nx265 [info]: Rate Control / qCompress            : ABR-2500 kbps / 0.60\nx265 [info]: VBV/HRD buffer / max-rate / init    : 2500 / 2500 / 0.750\nx265 [info]: tools: rect limit-modes rd=4 psy-rd=2.00 rdoq=2 psy-rdoq=1.00\nx265 [info]: tools: rskip mode=1 signhide tmvp strong-intra-smoothing lslices=4\nx265 [info]: tools: deblock sao dhdr10-info\nOutput #0, mp4, to 'C:\\Users\\Peter\\Desktop\\stuff\\MIUN\\quantitative_research\\video_compression\\compressed_videos\\BVI-HD\\hevc\\2.5\\Rowing_1920x1080_30fps_hevc.mp4':\n  Metadata:\n    major_brand     : isom\n    minor_version   : 512\n    compatible_brands: isomiso2avc1mp41\n    encoder         : Lavf62.3.100\n  Stream #0:0(und): Video: hevc (hev1 / 0x31766568), yuv420p10le(tv, progressive), 1920x1080, q=2-31, 2500 kb/s, 30 fps, 15360 tbn (default)\n    Metadata:\n      encoder         : Lavc62.11.100 libx265\n      handler_name    : VideoHandler\n      vendor_id       : [0][0][0][0]\n    Side data:\n      cpb: bitrate max/min/avg: 2500000/0/2500000 buffer size: 2500000 vbv_delay: N/A\nframe=    0 fps=0.0 q=0.0 size=       0KiB time=N/A bitrate=N/A speed=N/A elapsed=0:00:00.50    \nframe=    0 fps=0.0 q=0.0 size=       0KiB time=N/A bitrate=N/A speed=N/A elapsed=0:00:01.02    \nframe=    0 fps=0.0 q=0.0 size=       0KiB time=N/A bitrate=N/A speed=N/A elapsed=0:00:01.55    \nframe=    0 fps=0.0 q=0.0 size=       0KiB time=N/A bitrate=N/A speed=N/A elapsed=0:00:02.08    \nframe=    0 fps=0.0 q=0.0 size=       0KiB time=N/A bitrate=N/A speed=N/A elapsed=0:00:02.59    \nframe=    0 fps=0.0 q=0.0 size=       0KiB time=N/A bitrate=N/A speed=N/A elapsed=0:00:03.13    \nframe=    0 fps=0.0 q=0.0 size=       0KiB time=N/A bitrate=N/A speed=N/A elapsed=0:00:03.67    \nframe=    0 fps=0.0 q=0.0 size=       0KiB time=N/A bitrate=N/A speed=N/A elapsed=0:00:04.20    \nframe=    0 fps=0.0 q=0.0 size=       0KiB time=N/A bitrate=N/A speed=N/A elapsed=0:00:04.72    \nframe=    0 fps=0.0 q=0.0 size=       0KiB time=N/A bitrate=N/A speed=N/A elapsed=0:00:05.23    \nframe=    0 fps=0.0 q=0.0 size=       0KiB time=N/A bitrate=N/A speed=N/A elapsed=0:00:05.75    \nframe=    0 fps=0.0 q=0.0 size=       0KiB time=N/A bitrate=N/A speed=N/A elapsed=0:00:06.27    \nframe=    0 fps=0.0 q=0.0 size=       0KiB time=N/A bitrate=N/A speed=N/A elapsed=0:00:06.79    \nframe=    0 fps=0.0 q=0.0 size=       0KiB time=N/A bitrate=N/A speed=N/A elapsed=0:00:07.31    \nframe=    0 fps=0.0 q=0.0 size=       0KiB time=N/A bitrate=N/A speed=N/A elapsed=0:00:07.85    \nframe=    0 fps=0.0 q=0.0 size=       0KiB time=N/A bitrate=N/A speed=N/A elapsed=0:00:08.38    \nframe=    1 fps=0.1 q=37.5 size=       0KiB time=-00:00:00.03 bitrate=N/A speed=N/A elapsed=0:00:08.94    \nframe=    1 fps=0.1 q=37.5 size=       0KiB time=-00:00:00.03 bitrate=N/A speed=N/A elapsed=0:00:09.49    \nframe=    1 fps=0.1 q=37.5 size=       0KiB time=-00:00:00.03 bitrate=N/A speed=N/A elapsed=0:00:10.03    \nframe=    1 fps=0.1 q=37.5 size=       0KiB time=-00:00:00.03 bitrate=N/A speed=N/A elapsed=0:00:10.59    \nframe=    1 fps=0.1 q=37.5 size=       0KiB time=-00:00:00.03 bitrate=N/A speed=N/A elapsed=0:00:11.11    \nframe=    1 fps=0.1 q=37.5 size=       0KiB time=-00:00:00.03 bitrate=N/A speed=N/A elapsed=0:00:11.63    \nframe=    1 fps=0.1 q=37.5 size=       0KiB time=-00:00:00.03 bitrate=N/A speed=N/A elapsed=0:00:12.15    \nframe=    2 fps=0.2 q=41.8 size=       0KiB time=00:00:00.00 bitrate=N/A speed=   0x elapsed=0:00:12.68    \nframe=    2 fps=0.2 q=41.8 size=       0KiB time=00:00:00.00 bitrate=N/A speed=   0x elapsed=0:00:13.21    \nframe=    2 fps=0.1 q=41.8 size=       0KiB time=00:00:00.00 bitrate=N/A speed=   0x elapsed=0:00:13.72    \nframe=    2 fps=0.1 q=41.8 size=       0KiB time=00:00:00.00 bitrate=N/A speed=   0x elapsed=0:00:14.24    \nframe=    3 fps=0.2 q=48.5 size=       0KiB time=00:00:00.03 bitrate=  10.6kbits/s speed=0.00226x elapsed=0:00:14.76    \nframe=    3 fps=0.2 q=48.5 size=       0KiB time=00:00:00.03 bitrate=  10.6kbits/s speed=0.00218x elapsed=0:00:15.27    \nframe=    3 fps=0.2 q=48.5 size=       0KiB time=00:00:00.03 bitrate=  10.6kbits/s speed=0.00211x elapsed=0:00:15.79    \nframe=    3 fps=0.2 q=48.5 size=       0KiB time=00:00:00.03 bitrate=  10.6kbits/s speed=0.00204x elapsed=0:00:16.32    \nframe=    4 fps=0.2 q=49.8 size=       0KiB time=00:00:00.06 bitrate=   5.3kbits/s speed=0.00395x elapsed=0:00:16.86    \nframe=    4 fps=0.2 q=49.8 size=       0KiB time=00:00:00.06 bitrate=   5.3kbits/s speed=0.00383x elapsed=0:00:17.40    \nframe=    4 fps=0.2 q=49.8 size=       0KiB time=00:00:00.06 bitrate=   5.3kbits/s speed=0.00372x elapsed=0:00:17.93    \nframe=    4 fps=0.2 q=49.8 size=       0KiB time=00:00:00.06 bitrate=   5.3kbits/s speed=0.00361x elapsed=0:00:18.44    \nframe=    5 fps=0.3 q=50.9 size=       0KiB time=00:00:00.10 bitrate=   3.5kbits/s speed=0.00527x elapsed=0:00:18.97    \nframe=    5 fps=0.3 q=50.9 size=       0KiB time=00:00:00.10 bitrate=   3.5kbits/s speed=0.00512x elapsed=0:00:19.51    \nframe=    5 fps=0.2 q=50.9 size=       0KiB time=00:00:00.10 bitrate=   3.5kbits/s speed=0.00498x elapsed=0:00:20.08    \nframe=    5 fps=0.2 q=50.9 size=       0KiB time=00:00:00.10 bitrate=   3.5kbits/s speed=0.00482x elapsed=0:00:20.73    \nframe=    5 fps=0.2 q=50.9 size=       0KiB time=00:00:00.10 bitrate=   3.5kbits/s speed=0.00468x elapsed=0:00:21.35    \nframe=    5 fps=0.2 q=50.9 size=       0KiB time=00:00:00.10 bitrate=   3.5kbits/s speed=0.00456x elapsed=0:00:21.93    \nframe=    5 fps=0.2 q=50.9 size=       0KiB time=00:00:00.10 bitrate=   3.5kbits/s speed=0.00444x elapsed=0:00:22.50    \nframe=    5 fps=0.2 q=50.9 size=       0KiB time=00:00:00.10 bitrate=   3.5kbits/s speed=0.00434x elapsed=0:00:23.05    \nframe=    5 fps=0.2 q=50.9 size=       0KiB time=00:00:00.10 bitrate=   3.5kbits/s speed=0.00423x elapsed=0:00:23.61    \nframe=    5 fps=0.2 q=50.9 size=       0KiB time=00:00:00.10 bitrate=   3.5kbits/s speed=0.00413x elapsed=0:00:24.18    \nframe=    5 fps=0.2 q=50.9 size=       0KiB time=00:00:00.10 bitrate=   3.5kbits/s speed=0.00404x elapsed=0:00:24.76    \nframe=    5 fps=0.2 q=50.9 size=       0KiB time=00:00:00.10 bitrate=   3.5kbits/s speed=0.00395x elapsed=0:00:25.34    \nframe=    5 fps=0.2 q=50.9 size=       0KiB time=00:00:00.10 bitrate=   3.5kbits/s speed=0.00385x elapsed=0:00:25.96    \nframe=    5 fps=0.2 q=50.9 size=       0KiB time=00:00:00.10 bitrate=   3.5kbits/s speed=0.00377x elapsed=0:00:26.52    \nframe=    5 fps=0.2 q=50.9 size=       0KiB time=00:00:00.10 bitrate=   3.5kbits/s speed=0.00369x elapsed=0:00:27.09    \nframe=    5 fps=0.2 q=50.9 size=       0KiB time=00:00:00.10 bitrate=   3.5kbits/s speed=0.00362x elapsed=0:00:27.62    \nframe=    5 fps=0.2 q=50.9 size=       0KiB time=00:00:00.10 bitrate=   3.5kbits/s speed=0.00355x elapsed=0:00:28.18    \nframe=    5 fps=0.2 q=50.9 size=       0KiB time=00:00:00.10 bitrate=   3.5kbits/s speed=0.00347x elapsed=0:00:28.77    \nframe=    6 fps=0.2 q=50.8 size=       0KiB time=00:00:00.13 bitrate=   2.6kbits/s speed=0.00455x elapsed=0:00:29.30    \nframe=    6 fps=0.2 q=50.8 size=       0KiB time=00:00:00.13 bitrate=   2.6kbits/s speed=0.00447x elapsed=0:00:29.85    \nframe=    6 fps=0.2 q=50.8 size=       0KiB time=00:00:00.13 bitrate=   2.6kbits/s speed=0.00438x elapsed=0:00:30.40    \nframe=    6 fps=0.2 q=50.8 size=       0KiB time=00:00:00.13 bitrate=   2.6kbits/s speed=0.00431x elapsed=0:00:30.93    \nframe=    6 fps=0.2 q=50.8 size=       0KiB time=00:00:00.13 bitrate=   2.6kbits/s speed=0.00423x elapsed=0:00:31.48    \nframe=    6 fps=0.2 q=50.8 size=       0KiB time=00:00:00.13 bitrate=   2.6kbits/s speed=0.00416x elapsed=0:00:32.03    \nframe=    6 fps=0.2 q=50.8 size=       0KiB time=00:00:00.13 bitrate=   2.6kbits/s speed=0.00409x elapsed=0:00:32.56    \nframe=    6 fps=0.2 q=50.8 size=       0KiB time=00:00:00.13 bitrate=   2.6kbits/s speed=0.00403x elapsed=0:00:33.10    \nframe=    6 fps=0.2 q=50.8 size=       0KiB time=00:00:00.13 bitrate=   2.6kbits/s speed=0.00396x elapsed=0:00:33.64    \nframe=    6 fps=0.2 q=50.8 size=       0KiB time=00:00:00.13 bitrate=   2.6kbits/s speed=0.0039x elapsed=0:00:34.16    \nframe=    6 fps=0.2 q=50.8 size=       0KiB time=00:00:00.13 bitrate=   2.6kbits/s speed=0.00384x elapsed=0:00:34.70    \nframe=    6 fps=0.2 q=50.8 size=       0KiB time=00:00:00.13 bitrate=   2.6kbits/s speed=0.00379x elapsed=0:00:35.21    \nframe=    6 fps=0.2 q=50.8 size=       0KiB time=00:00:00.13 bitrate=   2.6kbits/s speed=0.00373x elapsed=0:00:35.73    \nframe=    7 fps=0.2 q=50.9 size=       0KiB time=00:00:00.16 bitrate=   2.1kbits/s speed=0.0046x elapsed=0:00:36.24    \nframe=    7 fps=0.2 q=50.9 size=       0KiB time=00:00:00.16 bitrate=   2.1kbits/s speed=0.00453x elapsed=0:00:36.79    \nframe=    7 fps=0.2 q=50.9 size=       0KiB time=00:00:00.16 bitrate=   2.1kbits/s speed=0.00447x elapsed=0:00:37.30    \nframe=    7 fps=0.2 q=50.9 size=       0KiB time=00:00:00.16 bitrate=   2.1kbits/s speed=0.0044x elapsed=0:00:37.85    \nframe=    8 fps=0.2 q=44.5 size=       0KiB time=00:00:00.20 bitrate=   1.8kbits/s speed=0.00521x elapsed=0:00:38.36    \nframe=    8 fps=0.2 q=44.5 size=       0KiB time=00:00:00.20 bitrate=   1.8kbits/s speed=0.00514x elapsed=0:00:38.89    \nframe=    8 fps=0.2 q=44.5 size=       0KiB time=00:00:00.20 bitrate=   1.8kbits/s speed=0.00507x elapsed=0:00:39.41    \nframe=    8 fps=0.2 q=44.5 size=       0KiB time=00:00:00.20 bitrate=   1.8kbits/s speed=0.005x elapsed=0:00:39.96    \nframe=    8 fps=0.2 q=44.5 size=       0KiB time=00:00:00.20 bitrate=   1.8kbits/s speed=0.00494x elapsed=0:00:40.48    \nframe=    8 fps=0.2 q=44.5 size=       0KiB time=00:00:00.20 bitrate=   1.8kbits/s speed=0.00488x elapsed=0:00:41.00    \nframe=    8 fps=0.2 q=44.5 size=       0KiB time=00:00:00.20 bitrate=   1.8kbits/s speed=0.00482x elapsed=0:00:41.52    \nframe=    8 fps=0.2 q=44.5 size=       0KiB time=00:00:00.20 bitrate=   1.8kbits/s speed=0.00475x elapsed=0:00:42.06    \nframe=    9 fps=0.2 q=47.2 size=       0KiB time=00:00:00.23 bitrate=   1.5kbits/s speed=0.00547x elapsed=0:00:42.63    \nframe=    9 fps=0.2 q=47.2 size=       0KiB time=00:00:00.23 bitrate=   1.5kbits/s speed=0.0054x elapsed=0:00:43.17    \nframe=    9 fps=0.2 q=47.2 size=       0KiB time=00:00:00.23 bitrate=   1.5kbits/s speed=0.00534x elapsed=0:00:43.68    \nframe=    9 fps=0.2 q=47.2 size=       0KiB time=00:00:00.23 bitrate=   1.5kbits/s speed=0.00528x elapsed=0:00:44.22    \nframe=   10 fps=0.2 q=48.6 size=       0KiB time=00:00:00.26 bitrate=   1.3kbits/s speed=0.00596x elapsed=0:00:44.73    \nframe=   10 fps=0.2 q=48.6 size=       0KiB time=00:00:00.26 bitrate=   1.3kbits/s speed=0.00589x elapsed=0:00:45.28    \nframe=   10 fps=0.2 q=48.6 size=       0KiB time=00:00:00.26 bitrate=   1.3kbits/s speed=0.00582x elapsed=0:00:45.85    \nframe=   10 fps=0.2 q=48.6 size=       0KiB time=00:00:00.26 bitrate=   1.3kbits/s speed=0.00575x elapsed=0:00:46.39    \nframe=   10 fps=0.2 q=48.6 size=       0KiB time=00:00:00.26 bitrate=   1.3kbits/s speed=0.00568x elapsed=0:00:46.93    \nframe=   10 fps=0.2 q=48.6 size=       0KiB time=00:00:00.26 bitrate=   1.3kbits/s speed=0.00562x elapsed=0:00:47.48    \nframe=   10 fps=0.2 q=48.6 size=       0KiB time=00:00:00.26 bitrate=   1.3kbits/s speed=0.00556x elapsed=0:00:47.99    \nframe=   10 fps=0.2 q=48.6 size=       0KiB time=00:00:00.26 bitrate=   1.3kbits/s speed=0.0055x elapsed=0:00:48.51    \nframe=   10 fps=0.2 q=48.6 size=       0KiB time=00:00:00.26 bitrate=   1.3kbits/s speed=0.00544x elapsed=0:00:49.03    \nframe=   10 fps=0.2 q=48.6 size=       0KiB time=00:00:00.26 bitrate=   1.3kbits/s speed=0.00538x elapsed=0:00:49.59    \nframe=   11 fps=0.2 q=47.0 size=       0KiB time=00:00:00.30 bitrate=   1.2kbits/s speed=0.00599x elapsed=0:00:50.10    \nframe=   11 fps=0.2 q=47.0 size=       0KiB time=00:00:00.30 bitrate=   1.2kbits/s speed=0.00592x elapsed=0:00:50.67    \nframe=   11 fps=0.2 q=47.0 size=       0KiB time=00:00:00.30 bitrate=   1.2kbits/s speed=0.00586x elapsed=0:00:51.23    \nframe=   11 fps=0.2 q=47.0 size=       0KiB time=00:00:00.30 bitrate=   1.2kbits/s speed=0.00579x elapsed=0:00:51.78    \nframe=   12 fps=0.2 q=42.4 size=       0KiB time=00:00:00.33 bitrate=   1.1kbits/s speed=0.00637x elapsed=0:00:52.29    \nframe=   12 fps=0.2 q=42.4 size=       0KiB time=00:00:00.33 bitrate=   1.1kbits/s speed=0.00631x elapsed=0:00:52.84    \nframe=   12 fps=0.2 q=42.4 size=       0KiB time=00:00:00.33 bitrate=   1.1kbits/s speed=0.00624x elapsed=0:00:53.37    \nframe=   12 fps=0.2 q=42.4 size=       0KiB time=00:00:00.33 bitrate=   1.1kbits/s speed=0.00618x elapsed=0:00:53.89    \nframe=   12 fps=0.2 q=42.4 size=       0KiB time=00:00:00.33 bitrate=   1.1kbits/s speed=0.00612x elapsed=0:00:54.43    \nframe=   12 fps=0.2 q=42.4 size=       0KiB time=00:00:00.33 bitrate=   1.1kbits/s speed=0.00607x elapsed=0:00:54.94    \nframe=   13 fps=0.2 q=45.0 size=       0KiB time=00:00:00.36 bitrate=   1.0kbits/s speed=0.00661x elapsed=0:00:55.49    \nframe=   13 fps=0.2 q=45.0 size=       0KiB time=00:00:00.36 bitrate=   1.0kbits/s speed=0.00655x elapsed=0:00:56.01    \nframe=   13 fps=0.2 q=45.0 size=       0KiB time=00:00:00.36 bitrate=   1.0kbits/s speed=0.00649x elapsed=0:00:56.53    \nframe=   13 fps=0.2 q=45.0 size=       0KiB time=00:00:00.36 bitrate=   1.0kbits/s speed=0.00642x elapsed=0:00:57.08    \nframe=   13 fps=0.2 q=45.0 size=       0KiB time=00:00:00.36 bitrate=   1.0kbits/s speed=0.00636x elapsed=0:00:57.62    \nframe=   13 fps=0.2 q=45.0 size=       0KiB time=00:00:00.36 bitrate=   1.0kbits/s speed=0.0063x elapsed=0:00:58.16    \nframe=   14 fps=0.2 q=46.7 size=       0KiB time=00:00:00.40 bitrate=   0.9kbits/s speed=0.00681x elapsed=0:00:58.70    \nframe=   14 fps=0.2 q=46.7 size=       0KiB time=00:00:00.40 bitrate=   0.9kbits/s speed=0.00675x elapsed=0:00:59.23    \nframe=   14 fps=0.2 q=46.7 size=       0KiB time=00:00:00.40 bitrate=   0.9kbits/s speed=0.00669x elapsed=0:00:59.74    \nframe=   14 fps=0.2 q=46.7 size=       0KiB time=00:00:00.40 bitrate=   0.9kbits/s speed=0.00664x elapsed=0:01:00.27    \nframe=   15 fps=0.2 q=45.6 size=       0KiB time=00:00:00.43 bitrate=   0.8kbits/s speed=0.00712x elapsed=0:01:00.82    \nframe=   15 fps=0.2 q=45.6 size=       0KiB time=00:00:00.43 bitrate=   0.8kbits/s speed=0.00706x elapsed=0:01:01.33    \nframe=   15 fps=0.2 q=45.6 size=       0KiB time=00:00:00.43 bitrate=   0.8kbits/s speed=0.00701x elapsed=0:01:01.85    \nframe=   15 fps=0.2 q=45.6 size=       0KiB time=00:00:00.43 bitrate=   0.8kbits/s speed=0.00695x elapsed=0:01:02.36    \nframe=   15 fps=0.2 q=45.6 size=       0KiB time=00:00:00.43 bitrate=   0.8kbits/s speed=0.00689x elapsed=0:01:02.89    \nframe=   16 fps=0.3 q=43.5 size=       0KiB time=00:00:00.46 bitrate=   0.8kbits/s speed=0.00736x elapsed=0:01:03.42    \nframe=   16 fps=0.3 q=43.5 size=       0KiB time=00:00:00.46 bitrate=   0.8kbits/s speed=0.0073x elapsed=0:01:03.94    \nframe=   16 fps=0.2 q=43.5 size=       0KiB time=00:00:00.46 bitrate=   0.8kbits/s speed=0.00724x elapsed=0:01:04.49    \nframe=   16 fps=0.2 q=43.5 size=       0KiB time=00:00:00.46 bitrate=   0.8kbits/s speed=0.00718x elapsed=0:01:05.02    \nframe=   16 fps=0.2 q=43.5 size=       0KiB time=00:00:00.46 bitrate=   0.8kbits/s speed=0.00712x elapsed=0:01:05.53    \nframe=   16 fps=0.2 q=43.5 size=       0KiB time=00:00:00.46 bitrate=   0.8kbits/s speed=0.00706x elapsed=0:01:06.06    \nframe=   17 fps=0.3 q=45.0 size=       0KiB time=00:00:00.50 bitrate=   0.7kbits/s speed=0.00751x elapsed=0:01:06.57    \nframe=   17 fps=0.3 q=45.0 size=       0KiB time=00:00:00.50 bitrate=   0.7kbits/s speed=0.00745x elapsed=0:01:07.11    \nframe=   17 fps=0.3 q=45.0 size=       0KiB time=00:00:00.50 bitrate=   0.7kbits/s speed=0.00739x elapsed=0:01:07.63    \nframe=   17 fps=0.2 q=45.0 size=       0KiB time=00:00:00.50 bitrate=   0.7kbits/s speed=0.00733x elapsed=0:01:08.17    \nframe=   17 fps=0.2 q=45.0 size=       0KiB time=00:00:00.50 bitrate=   0.7kbits/s speed=0.00728x elapsed=0:01:08.71    \nframe=   18 fps=0.3 q=45.9 size=       0KiB time=00:00:00.53 bitrate=   0.7kbits/s speed=0.0077x elapsed=0:01:09.25    \nframe=   18 fps=0.3 q=45.9 size=       0KiB time=00:00:00.53 bitrate=   0.7kbits/s speed=0.00764x elapsed=0:01:09.76    \nframe=   18 fps=0.3 q=45.9 size=       0KiB time=00:00:00.53 bitrate=   0.7kbits/s speed=0.00759x elapsed=0:01:10.30    \nframe=   18 fps=0.3 q=45.9 size=       0KiB time=00:00:00.53 bitrate=   0.7kbits/s speed=0.00753x elapsed=0:01:10.82    \nframe=   18 fps=0.3 q=45.9 size=       0KiB time=00:00:00.53 bitrate=   0.7kbits/s speed=0.00748x elapsed=0:01:11.33    \nframe=   19 fps=0.3 q=46.3 size=       0KiB time=00:00:00.56 bitrate=   0.6kbits/s speed=0.00789x elapsed=0:01:11.86    \nframe=   19 fps=0.3 q=46.3 size=       0KiB time=00:00:00.56 bitrate=   0.6kbits/s speed=0.00783x elapsed=0:01:12.38    \nframe=   19 fps=0.3 q=46.3 size=       0KiB time=00:00:00.56 bitrate=   0.6kbits/s speed=0.00777x elapsed=0:01:12.89    \nframe=   19 fps=0.3 q=46.3 size=       0KiB time=00:00:00.56 bitrate=   0.6kbits/s speed=0.00772x elapsed=0:01:13.41    \nframe=   19 fps=0.3 q=46.3 size=       0KiB time=00:00:00.56 bitrate=   0.6kbits/s speed=0.00766x elapsed=0:01:13.93    \nframe=   19 fps=0.3 q=46.3 size=       0KiB time=00:00:00.56 bitrate=   0.6kbits/s speed=0.00761x elapsed=0:01:14.45    \nframe=   20 fps=0.3 q=43.8 size=       0KiB time=00:00:00.60 bitrate=   0.6kbits/s speed=0.008x elapsed=0:01:14.97    \nframe=   20 fps=0.3 q=43.8 size=       0KiB time=00:00:00.60 bitrate=   0.6kbits/s speed=0.00795x elapsed=0:01:15.49    \nframe=   20 fps=0.3 q=43.8 size=       0KiB time=00:00:00.60 bitrate=   0.6kbits/s speed=0.00789x elapsed=0:01:16.02    \nframe=   20 fps=0.3 q=43.8 size=       0KiB time=00:00:00.60 bitrate=   0.6kbits/s speed=0.00784x elapsed=0:01:16.55    \nframe=   21 fps=0.3 q=46.3 size=       0KiB time=00:00:00.63 bitrate=   0.6kbits/s speed=0.00822x elapsed=0:01:17.08    \nframe=   21 fps=0.3 q=46.3 size=       0KiB time=00:00:00.63 bitrate=   0.6kbits/s speed=0.00816x elapsed=0:01:17.60    \nframe=   21 fps=0.3 q=46.3 size=       0KiB time=00:00:00.63 bitrate=   0.6kbits/s speed=0.00811x elapsed=0:01:18.13    \nframe=   21 fps=0.3 q=46.3 size=       0KiB time=00:00:00.63 bitrate=   0.6kbits/s speed=0.00805x elapsed=0:01:18.67    \nframe=   21 fps=0.3 q=46.3 size=       0KiB time=00:00:00.63 bitrate=   0.6kbits/s speed=0.008x elapsed=0:01:19.20    \nframe=   21 fps=0.3 q=46.3 size=       0KiB time=00:00:00.63 bitrate=   0.6kbits/s speed=0.00794x elapsed=0:01:19.72    \nframe=   21 fps=0.3 q=46.3 size=       0KiB time=00:00:00.63 bitrate=   0.6kbits/s speed=0.00789x elapsed=0:01:20.24    \nframe=   21 fps=0.3 q=46.3 size=       0KiB time=00:00:00.63 bitrate=   0.6kbits/s speed=0.00784x elapsed=0:01:20.75    \nframe=   22 fps=0.3 q=47.1 size=       0KiB time=00:00:00.66 bitrate=   0.5kbits/s speed=0.0082x elapsed=0:01:21.27    \nframe=   22 fps=0.3 q=47.1 size=       0KiB time=00:00:00.66 bitrate=   0.5kbits/s speed=0.00815x elapsed=0:01:21.80    \nframe=   22 fps=0.3 q=47.1 size=       0KiB time=00:00:00.66 bitrate=   0.5kbits/s speed=0.0081x elapsed=0:01:22.35    \nframe=   22 fps=0.3 q=47.1 size=       0KiB time=00:00:00.66 bitrate=   0.5kbits/s speed=0.00804x elapsed=0:01:22.93    \nframe=   22 fps=0.3 q=47.1 size=       0KiB time=00:00:00.66 bitrate=   0.5kbits/s speed=0.00798x elapsed=0:01:23.49    \nframe=   23 fps=0.3 q=47.4 size=       0KiB time=00:00:00.70 bitrate=   0.5kbits/s speed=0.00833x elapsed=0:01:24.02    \nframe=   23 fps=0.3 q=47.4 size=       0KiB time=00:00:00.70 bitrate=   0.5kbits/s speed=0.00828x elapsed=0:01:24.53    \nframe=   23 fps=0.3 q=47.4 size=       0KiB time=00:00:00.70 bitrate=   0.5kbits/s speed=0.00823x elapsed=0:01:25.09    \nframe=   23 fps=0.3 q=47.4 size=       0KiB time=00:00:00.70 bitrate=   0.5kbits/s speed=0.00818x elapsed=0:01:25.61    \nframe=   24 fps=0.3 q=44.2 size=       0KiB time=00:00:00.73 bitrate=   0.5kbits/s speed=0.00851x elapsed=0:01:26.13    \nframe=   24 fps=0.3 q=44.2 size=       0KiB time=00:00:00.73 bitrate=   0.5kbits/s speed=0.00846x elapsed=0:01:26.65    \nframe=   24 fps=0.3 q=44.2 size=       0KiB time=00:00:00.73 bitrate=   0.5kbits/s speed=0.00841x elapsed=0:01:27.17    \nframe=   24 fps=0.3 q=44.2 size=       0KiB time=00:00:00.73 bitrate=   0.5kbits/s speed=0.00836x elapsed=0:01:27.69    \nframe=   24 fps=0.3 q=44.2 size=       0KiB time=00:00:00.73 bitrate=   0.5kbits/s speed=0.00831x elapsed=0:01:28.21    \nframe=   24 fps=0.3 q=44.2 size=       0KiB time=00:00:00.73 bitrate=   0.5kbits/s speed=0.00826x elapsed=0:01:28.75    \nframe=   24 fps=0.3 q=44.2 size=       0KiB time=00:00:00.73 bitrate=   0.5kbits/s speed=0.00821x elapsed=0:01:29.27    \nframe=   25 fps=0.3 q=46.3 size=     256KiB time=00:00:00.76 bitrate=2735.9kbits/s speed=0.00854x elapsed=0:01:29.80    \nframe=   25 fps=0.3 q=46.3 size=     256KiB time=00:00:00.76 bitrate=2735.9kbits/s speed=0.00849x elapsed=0:01:30.32    \nframe=   25 fps=0.3 q=46.3 size=     256KiB time=00:00:00.76 bitrate=2735.9kbits/s speed=0.00844x elapsed=0:01:30.84    \nframe=   25 fps=0.3 q=46.3 size=     256KiB time=00:00:00.76 bitrate=2735.9kbits/s speed=0.00839x elapsed=0:01:31.34    \nframe=   26 fps=0.3 q=47.1 size=     256KiB time=00:00:00.80 bitrate=2621.9kbits/s speed=0.00871x elapsed=0:01:31.86    \nframe=   26 fps=0.3 q=47.1 size=     256KiB time=00:00:00.80 bitrate=2621.9kbits/s speed=0.00866x elapsed=0:01:32.38    \nframe=   26 fps=0.3 q=47.1 size=     256KiB time=00:00:00.80 bitrate=2621.9kbits/s speed=0.00861x elapsed=0:01:32.90    \nframe=   26 fps=0.3 q=47.1 size=     256KiB time=00:00:00.80 bitrate=2621.9kbits/s speed=0.00856x elapsed=0:01:33.42    \nframe=   27 fps=0.3 q=47.6 size=     256KiB time=00:00:00.83 bitrate=2517.0kbits/s speed=0.00887x elapsed=0:01:33.95    \nframe=   27 fps=0.3 q=47.6 size=     256KiB time=00:00:00.83 bitrate=2517.0kbits/s speed=0.00882x elapsed=0:01:34.48    \nframe=   27 fps=0.3 q=47.6 size=     256KiB time=00:00:00.83 bitrate=2517.0kbits/s speed=0.00877x elapsed=0:01:34.99    \nframe=   27 fps=0.3 q=47.6 size=     256KiB time=00:00:00.83 bitrate=2517.0kbits/s speed=0.00873x elapsed=0:01:35.50    \nframe=   28 fps=0.3 q=44.5 size=     256KiB time=00:00:00.86 bitrate=2420.2kbits/s speed=0.00902x elapsed=0:01:36.03    \nframe=   28 fps=0.3 q=44.5 size=     256KiB time=00:00:00.86 bitrate=2420.2kbits/s speed=0.00898x elapsed=0:01:36.53    \nframe=   28 fps=0.3 q=44.5 size=     256KiB time=00:00:00.86 bitrate=2420.2kbits/s speed=0.00893x elapsed=0:01:37.05    \nframe=   28 fps=0.3 q=44.5 size=     256KiB time=00:00:00.86 bitrate=2420.2kbits/s speed=0.00888x elapsed=0:01:37.60    \nframe=   28 fps=0.3 q=44.5 size=     256KiB time=00:00:00.86 bitrate=2420.2kbits/s speed=0.00883x elapsed=0:01:38.13    \nframe=   28 fps=0.3 q=44.5 size=     256KiB time=00:00:00.86 bitrate=2420.2kbits/s speed=0.00879x elapsed=0:01:38.65    \nframe=   29 fps=0.3 q=46.3 size=     256KiB time=00:00:00.90 bitrate=2330.6kbits/s speed=0.00907x elapsed=0:01:39.20    \nframe=   29 fps=0.3 q=46.3 size=     256KiB time=00:00:00.90 bitrate=2330.6kbits/s speed=0.00902x elapsed=0:01:39.74    \nframe=   29 fps=0.3 q=46.3 size=     256KiB time=00:00:00.90 bitrate=2330.6kbits/s speed=0.00897x elapsed=0:01:40.30    \nframe=   29 fps=0.3 q=46.3 size=     256KiB time=00:00:00.90 bitrate=2330.6kbits/s speed=0.00892x elapsed=0:01:40.86    \nframe=   29 fps=0.3 q=46.3 size=     256KiB time=00:00:00.90 bitrate=2330.6kbits/s speed=0.00887x elapsed=0:01:41.43    \nframe=   29 fps=0.3 q=46.3 size=     256KiB time=00:00:00.90 bitrate=2330.6kbits/s speed=0.00883x elapsed=0:01:41.96    \nframe=   29 fps=0.3 q=46.3 size=     256KiB time=00:00:00.90 bitrate=2330.6kbits/s speed=0.00878x elapsed=0:01:42.49    \nframe=   29 fps=0.3 q=46.3 size=     256KiB time=00:00:00.90 bitrate=2330.6kbits/s speed=0.00873x elapsed=0:01:43.03    \nframe=   29 fps=0.3 q=46.3 size=     256KiB time=00:00:00.90 bitrate=2330.6kbits/s speed=0.00869x elapsed=0:01:43.56    \nframe=   30 fps=0.3 q=47.6 size=     256KiB time=00:00:00.93 bitrate=2247.3kbits/s speed=0.00897x elapsed=0:01:44.09    \nframe=   30 fps=0.3 q=47.6 size=     256KiB time=00:00:00.93 bitrate=2247.3kbits/s speed=0.00892x elapsed=0:01:44.64    \nframe=   30 fps=0.3 q=47.6 size=     256KiB time=00:00:00.93 bitrate=2247.3kbits/s speed=0.00888x elapsed=0:01:45.15    \nframe=   30 fps=0.3 q=47.6 size=     256KiB time=00:00:00.93 bitrate=2247.3kbits/s speed=0.00883x elapsed=0:01:45.70    \nframe=   30 fps=0.3 q=47.6 size=     256KiB time=00:00:00.93 bitrate=2247.3kbits/s speed=0.00879x elapsed=0:01:46.22    \nframe=   30 fps=0.3 q=47.6 size=     256KiB time=00:00:00.93 bitrate=2247.3kbits/s speed=0.00874x elapsed=0:01:46.77    \nframe=   30 fps=0.3 q=47.6 size=     256KiB time=00:00:00.93 bitrate=2247.3kbits/s speed=0.0087x elapsed=0:01:47.30    \nframe=   31 fps=0.3 q=47.4 size=     256KiB time=00:00:00.96 bitrate=2169.8kbits/s speed=0.00896x elapsed=0:01:47.83    \nframe=   31 fps=0.3 q=47.4 size=     256KiB time=00:00:00.96 bitrate=2169.8kbits/s speed=0.00892x elapsed=0:01:48.40    \nframe=   31 fps=0.3 q=47.4 size=     256KiB time=00:00:00.96 bitrate=2169.8kbits/s speed=0.00887x elapsed=0:01:48.92    \nframe=   31 fps=0.3 q=47.4 size=     256KiB time=00:00:00.96 bitrate=2169.8kbits/s speed=0.00883x elapsed=0:01:49.44    \nframe=   31 fps=0.3 q=47.4 size=     256KiB time=00:00:00.96 bitrate=2169.8kbits/s speed=0.00879x elapsed=0:01:49.96    \nframe=   31 fps=0.3 q=47.4 size=     256KiB time=00:00:00.96 bitrate=2169.8kbits/s speed=0.00875x elapsed=0:01:50.49    \nframe=   31 fps=0.3 q=47.4 size=     256KiB time=00:00:00.96 bitrate=2169.8kbits/s speed=0.00871x elapsed=0:01:51.04    \nframe=   31 fps=0.3 q=47.4 size=     256KiB time=00:00:00.96 bitrate=2169.8kbits/s speed=0.00867x elapsed=0:01:51.55    \nframe=   32 fps=0.3 q=47.8 size=     256KiB time=00:00:01.00 bitrate=2097.5kbits/s speed=0.00892x elapsed=0:01:52.09    \nframe=   32 fps=0.3 q=47.8 size=     256KiB time=00:00:01.00 bitrate=2097.5kbits/s speed=0.00888x elapsed=0:01:52.60    \nframe=   32 fps=0.3 q=47.8 size=     256KiB time=00:00:01.00 bitrate=2097.5kbits/s speed=0.00884x elapsed=0:01:53.13    \nframe=   32 fps=0.3 q=47.8 size=     256KiB time=00:00:01.00 bitrate=2097.5kbits/s speed=0.0088x elapsed=0:01:53.65    \nframe=   32 fps=0.3 q=47.8 size=     256KiB time=00:00:01.00 bitrate=2097.5kbits/s speed=0.00876x elapsed=0:01:54.16    \nframe=   33 fps=0.3 q=44.7 size=     256KiB time=00:00:01.03 bitrate=2029.8kbits/s speed=0.00901x elapsed=0:01:54.70    \nframe=   33 fps=0.3 q=44.7 size=     256KiB time=00:00:01.03 bitrate=2029.8kbits/s speed=0.00897x elapsed=0:01:55.22    \nframe=   33 fps=0.3 q=44.7 size=     256KiB time=00:00:01.03 bitrate=2029.8kbits/s speed=0.00893x elapsed=0:01:55.76    \nframe=   33 fps=0.3 q=44.7 size=     256KiB time=00:00:01.03 bitrate=2029.8kbits/s speed=0.00889x elapsed=0:01:56.28    \nframe=   33 fps=0.3 q=44.7 size=     256KiB time=00:00:01.03 bitrate=2029.8kbits/s speed=0.00885x elapsed=0:01:56.81    \nframe=   33 fps=0.3 q=44.7 size=     256KiB time=00:00:01.03 bitrate=2029.8kbits/s speed=0.00881x elapsed=0:01:57.34    \nframe=   33 fps=0.3 q=44.7 size=     256KiB time=00:00:01.03 bitrate=2029.8kbits/s speed=0.00877x elapsed=0:01:57.86    \nframe=   34 fps=0.3 q=46.1 size=     256KiB time=00:00:01.06 bitrate=1966.4kbits/s speed=0.00901x elapsed=0:01:58.38    \nframe=   34 fps=0.3 q=46.1 size=     256KiB time=00:00:01.06 bitrate=1966.4kbits/s speed=0.00897x elapsed=0:01:58.91    \nframe=   34 fps=0.3 q=46.1 size=     256KiB time=00:00:01.06 bitrate=1966.4kbits/s speed=0.00893x elapsed=0:01:59.43    \nframe=   34 fps=0.3 q=46.1 size=     256KiB time=00:00:01.06 bitrate=1966.4kbits/s speed=0.00889x elapsed=0:01:59.95    \nframe=   34 fps=0.3 q=46.1 size=     256KiB time=00:00:01.06 bitrate=1966.4kbits/s speed=0.00885x elapsed=0:02:00.46    \nframe=   34 fps=0.3 q=46.1 size=     256KiB time=00:00:01.06 bitrate=1966.4kbits/s speed=0.00882x elapsed=0:02:00.97    \nframe=   35 fps=0.3 q=47.2 size=     256KiB time=00:00:01.10 bitrate=1906.8kbits/s speed=0.00905x elapsed=0:02:01.50    \nframe=   35 fps=0.3 q=47.2 size=     256KiB time=00:00:01.10 bitrate=1906.8kbits/s speed=0.00901x elapsed=0:02:02.03    \nframe=   35 fps=0.3 q=47.2 size=     256KiB time=00:00:01.10 bitrate=1906.8kbits/s speed=0.00898x elapsed=0:02:02.55    \nframe=   35 fps=0.3 q=47.2 size=     256KiB time=00:00:01.10 bitrate=1906.8kbits/s speed=0.00894x elapsed=0:02:03.07    \nframe=   35 fps=0.3 q=47.2 size=     256KiB time=00:00:01.10 bitrate=1906.8kbits/s speed=0.0089x elapsed=0:02:03.59    \nframe=   35 fps=0.3 q=47.2 size=     256KiB time=00:00:01.10 bitrate=1906.8kbits/s speed=0.00886x elapsed=0:02:04.12    \nframe=   35 fps=0.3 q=47.2 size=     256KiB time=00:00:01.10 bitrate=1906.8kbits/s speed=0.00882x elapsed=0:02:04.65    \nframe=   35 fps=0.3 q=47.2 size=     256KiB time=00:00:01.10 bitrate=1906.8kbits/s speed=0.00879x elapsed=0:02:05.16    \nframe=   36 fps=0.3 q=47.5 size=     256KiB time=00:00:01.13 bitrate=1850.7kbits/s speed=0.00902x elapsed=0:02:05.69    \nframe=   36 fps=0.3 q=47.5 size=     256KiB time=00:00:01.13 bitrate=1850.7kbits/s speed=0.00898x elapsed=0:02:06.24    \nframe=   36 fps=0.3 q=47.5 size=     256KiB time=00:00:01.13 bitrate=1850.7kbits/s speed=0.00894x elapsed=0:02:06.76    \nframe=   36 fps=0.3 q=47.5 size=     256KiB time=00:00:01.13 bitrate=1850.7kbits/s speed=0.0089x elapsed=0:02:07.28    \nframe=   36 fps=0.3 q=47.5 size=     256KiB time=00:00:01.13 bitrate=1850.7kbits/s speed=0.00887x elapsed=0:02:07.81    \nframe=   36 fps=0.3 q=47.5 size=     256KiB time=00:00:01.13 bitrate=1850.7kbits/s speed=0.00883x elapsed=0:02:08.33    \nframe=   37 fps=0.3 q=47.5 size=     256KiB time=00:00:01.16 bitrate=1797.9kbits/s speed=0.00905x elapsed=0:02:08.85    \nframe=   37 fps=0.3 q=47.5 size=     256KiB time=00:00:01.16 bitrate=1797.9kbits/s speed=0.00902x elapsed=0:02:09.39    \nframe=   37 fps=0.3 q=47.5 size=     256KiB time=00:00:01.16 bitrate=1797.9kbits/s speed=0.00898x elapsed=0:02:09.90    \nframe=   37 fps=0.3 q=47.5 size=     256KiB time=00:00:01.16 bitrate=1797.9kbits/s speed=0.00895x elapsed=0:02:10.41    \nframe=   37 fps=0.3 q=47.5 size=     256KiB time=00:00:01.16 bitrate=1797.9kbits/s speed=0.00891x elapsed=0:02:10.93    \nframe=   37 fps=0.3 q=47.5 size=     256KiB time=00:00:01.16 bitrate=1797.9kbits/s speed=0.00888x elapsed=0:02:11.45    \nframe=   37 fps=0.3 q=47.5 size=     256KiB time=00:00:01.16 bitrate=1797.9kbits/s speed=0.00884x elapsed=0:02:11.97    \nframe=   37 fps=0.3 q=47.5 size=     256KiB time=00:00:01.16 bitrate=1797.9kbits/s speed=0.0088x elapsed=0:02:12.50    \nframe=   38 fps=0.3 q=44.9 size=     256KiB time=00:00:01.20 bitrate=1747.9kbits/s speed=0.00902x elapsed=0:02:13.02    \nframe=   38 fps=0.3 q=44.9 size=     256KiB time=00:00:01.20 bitrate=1747.9kbits/s speed=0.00898x elapsed=0:02:13.56    \nframe=   38 fps=0.3 q=44.9 size=     256KiB time=00:00:01.20 bitrate=1747.9kbits/s speed=0.00895x elapsed=0:02:14.09    \nframe=   38 fps=0.3 q=44.9 size=     256KiB time=00:00:01.20 bitrate=1747.9kbits/s speed=0.00891x elapsed=0:02:14.60    \nframe=   38 fps=0.3 q=44.9 size=     256KiB time=00:00:01.20 bitrate=1747.9kbits/s speed=0.00888x elapsed=0:02:15.11    \nframe=   38 fps=0.3 q=44.9 size=     256KiB time=00:00:01.20 bitrate=1747.9kbits/s speed=0.00884x elapsed=0:02:15.67    \nframe=   38 fps=0.3 q=44.9 size=     256KiB time=00:00:01.20 bitrate=1747.9kbits/s speed=0.00881x elapsed=0:02:16.24    \nframe=   39 fps=0.3 q=45.9 size=     256KiB time=00:00:01.23 bitrate=1700.7kbits/s speed=0.00902x elapsed=0:02:16.76    \nframe=   39 fps=0.3 q=45.9 size=     256KiB time=00:00:01.23 bitrate=1700.7kbits/s speed=0.00898x elapsed=0:02:17.32    \nframe=   39 fps=0.3 q=45.9 size=     256KiB time=00:00:01.23 bitrate=1700.7kbits/s speed=0.00895x elapsed=0:02:17.85    \nframe=   40 fps=0.3 q=47.4 size=     256KiB time=00:00:01.26 bitrate=1655.9kbits/s speed=0.00915x elapsed=0:02:18.36    \nframe=   40 fps=0.3 q=47.4 size=     256KiB time=00:00:01.26 bitrate=1655.9kbits/s speed=0.00912x elapsed=0:02:18.89    \nframe=   40 fps=0.3 q=47.4 size=     256KiB time=00:00:01.26 bitrate=1655.9kbits/s speed=0.00908x elapsed=0:02:19.42    \nframe=   40 fps=0.3 q=47.4 size=     256KiB time=00:00:01.26 bitrate=1655.9kbits/s speed=0.00905x elapsed=0:02:19.94    \nframe=   40 fps=0.3 q=47.4 size=     256KiB time=00:00:01.26 bitrate=1655.9kbits/s speed=0.00902x elapsed=0:02:20.46    \nframe=   40 fps=0.3 q=47.4 size=     256KiB time=00:00:01.26 bitrate=1655.9kbits/s speed=0.00898x elapsed=0:02:20.98    \nframe=   41 fps=0.3 q=47.6 size=     256KiB time=00:00:01.30 bitrate=1613.5kbits/s speed=0.00919x elapsed=0:02:21.51    \nframe=   41 fps=0.3 q=47.6 size=     256KiB time=00:00:01.30 bitrate=1613.5kbits/s speed=0.00915x elapsed=0:02:22.05    \nframe=   41 fps=0.3 q=47.6 size=     256KiB time=00:00:01.30 bitrate=1613.5kbits/s speed=0.00912x elapsed=0:02:22.60    \nframe=   41 fps=0.3 q=47.6 size=     256KiB time=00:00:01.30 bitrate=1613.5kbits/s speed=0.00908x elapsed=0:02:23.12    \nframe=   41 fps=0.3 q=47.6 size=     256KiB time=00:00:01.30 bitrate=1613.5kbits/s speed=0.00905x elapsed=0:02:23.67    \nframe=   41 fps=0.3 q=47.6 size=     256KiB time=00:00:01.30 bitrate=1613.5kbits/s speed=0.00901x elapsed=0:02:24.26    \nframe=   41 fps=0.3 q=47.6 size=     256KiB time=00:00:01.30 bitrate=1613.5kbits/s speed=0.00897x elapsed=0:02:24.87    \nframe=   41 fps=0.3 q=47.6 size=     256KiB time=00:00:01.30 bitrate=1613.5kbits/s speed=0.00894x elapsed=0:02:25.39    \nframe=   42 fps=0.3 q=47.5 size=     256KiB time=00:00:01.33 bitrate=1573.1kbits/s speed=0.00914x elapsed=0:02:25.92    \nframe=   42 fps=0.3 q=47.5 size=     256KiB time=00:00:01.33 bitrate=1573.1kbits/s speed=0.0091x elapsed=0:02:26.48    \nframe=   42 fps=0.3 q=47.5 size=     256KiB time=00:00:01.33 bitrate=1573.1kbits/s speed=0.00907x elapsed=0:02:27.08    \nframe=   42 fps=0.3 q=47.5 size=     256KiB time=00:00:01.33 bitrate=1573.1kbits/s speed=0.00903x elapsed=0:02:27.62    \nframe=   42 fps=0.3 q=47.5 size=     256KiB time=00:00:01.33 bitrate=1573.1kbits/s speed=0.00899x elapsed=0:02:28.23    \nframe=   42 fps=0.3 q=47.5 size=     256KiB time=00:00:01.33 bitrate=1573.1kbits/s speed=0.00896x elapsed=0:02:28.83    \nframe=   42 fps=0.3 q=47.5 size=     256KiB time=00:00:01.33 bitrate=1573.1kbits/s speed=0.00892x elapsed=0:02:29.40    \nframe=   42 fps=0.3 q=47.5 size=     256KiB time=00:00:01.33 bitrate=1573.1kbits/s speed=0.00889x elapsed=0:02:30.01    \nframe=   42 fps=0.3 q=47.5 size=     256KiB time=00:00:01.33 bitrate=1573.1kbits/s speed=0.00885x elapsed=0:02:30.57    \nframe=   42 fps=0.3 q=47.5 size=     256KiB time=00:00:01.33 bitrate=1573.1kbits/s speed=0.00882x elapsed=0:02:31.13    \nframe=   42 fps=0.3 q=47.5 size=     256KiB time=00:00:01.33 bitrate=1573.1kbits/s speed=0.00879x elapsed=0:02:31.68    \nframe=   42 fps=0.3 q=47.5 size=     256KiB time=00:00:01.33 bitrate=1573.1kbits/s speed=0.00876x elapsed=0:02:32.24    \nframe=   42 fps=0.3 q=47.5 size=     256KiB time=00:00:01.33 bitrate=1573.1kbits/s speed=0.00873x elapsed=0:02:32.80    \nframe=   42 fps=0.3 q=47.5 size=     256KiB time=00:00:01.33 bitrate=1573.1kbits/s speed=0.0087x elapsed=0:02:33.33    \nframe=   42 fps=0.3 q=47.5 size=     256KiB time=00:00:01.33 bitrate=1573.1kbits/s speed=0.00866x elapsed=0:02:33.89    \nframe=   42 fps=0.3 q=47.5 size=     256KiB time=00:00:01.33 bitrate=1573.1kbits/s speed=0.00863x elapsed=0:02:34.45    \nframe=   42 fps=0.3 q=47.5 size=     256KiB time=00:00:01.33 bitrate=1573.1kbits/s speed=0.0086x elapsed=0:02:34.96    \nframe=   43 fps=0.3 q=45.0 size=     256KiB time=00:00:01.36 bitrate=1534.8kbits/s speed=0.00879x elapsed=0:02:35.49    \nframe=   43 fps=0.3 q=45.0 size=     256KiB time=00:00:01.36 bitrate=1534.8kbits/s speed=0.00876x elapsed=0:02:36.02    \nframe=   43 fps=0.3 q=45.0 size=     256KiB time=00:00:01.36 bitrate=1534.8kbits/s speed=0.00873x elapsed=0:02:36.55    \nframe=   43 fps=0.3 q=45.0 size=     256KiB time=00:00:01.36 bitrate=1534.8kbits/s speed=0.0087x elapsed=0:02:37.07    \nframe=   43 fps=0.3 q=45.0 size=     256KiB time=00:00:01.36 bitrate=1534.8kbits/s speed=0.00867x elapsed=0:02:37.58    \nframe=   44 fps=0.3 q=46.1 size=     256KiB time=00:00:01.40 bitrate=1498.2kbits/s speed=0.00885x elapsed=0:02:38.12    \nframe=   44 fps=0.3 q=46.1 size=     256KiB time=00:00:01.40 bitrate=1498.2kbits/s speed=0.00883x elapsed=0:02:38.63    \nframe=   44 fps=0.3 q=46.1 size=     256KiB time=00:00:01.40 bitrate=1498.2kbits/s speed=0.0088x elapsed=0:02:39.15    \nframe=   44 fps=0.3 q=46.1 size=     256KiB time=00:00:01.40 bitrate=1498.2kbits/s speed=0.00877x elapsed=0:02:39.66    \nframe=   45 fps=0.3 q=47.6 size=     256KiB time=00:00:01.43 bitrate=1463.4kbits/s speed=0.00895x elapsed=0:02:40.18    \nframe=   45 fps=0.3 q=47.6 size=     256KiB time=00:00:01.43 bitrate=1463.4kbits/s speed=0.00892x elapsed=0:02:40.72    \nframe=   45 fps=0.3 q=47.6 size=     256KiB time=00:00:01.43 bitrate=1463.4kbits/s speed=0.00889x elapsed=0:02:41.29    \nframe=   45 fps=0.3 q=47.6 size=     256KiB time=00:00:01.43 bitrate=1463.4kbits/s speed=0.00886x elapsed=0:02:41.82    \nframe=   45 fps=0.3 q=47.6 size=     256KiB time=00:00:01.43 bitrate=1463.4kbits/s speed=0.00883x elapsed=0:02:42.35    \nframe=   45 fps=0.3 q=47.6 size=     256KiB time=00:00:01.43 bitrate=1463.4kbits/s speed=0.0088x elapsed=0:02:42.88    \nframe=   45 fps=0.3 q=47.6 size=     256KiB time=00:00:01.43 bitrate=1463.4kbits/s speed=0.00877x elapsed=0:02:43.41    \nframe=   46 fps=0.3 q=47.7 size=     256KiB time=00:00:01.46 bitrate=1430.1kbits/s speed=0.00894x elapsed=0:02:43.97    \nframe=   46 fps=0.3 q=47.7 size=     256KiB time=00:00:01.46 bitrate=1430.1kbits/s speed=0.00892x elapsed=0:02:44.50    \nframe=   46 fps=0.3 q=47.7 size=     256KiB time=00:00:01.46 bitrate=1430.1kbits/s speed=0.00889x elapsed=0:02:45.03    \nframe=   46 fps=0.3 q=47.7 size=     256KiB time=00:00:01.46 bitrate=1430.1kbits/s speed=0.00886x elapsed=0:02:45.56    \nframe=   46 fps=0.3 q=47.7 size=     256KiB time=00:00:01.46 bitrate=1430.1kbits/s speed=0.00883x elapsed=0:02:46.06    \nframe=   46 fps=0.3 q=47.7 size=     256KiB time=00:00:01.46 bitrate=1430.1kbits/s speed=0.0088x elapsed=0:02:46.59    \nframe=   46 fps=0.3 q=47.7 size=     256KiB time=00:00:01.46 bitrate=1430.1kbits/s speed=0.00877x elapsed=0:02:47.14    \nframe=   47 fps=0.3 q=44.8 size=     256KiB time=00:00:01.50 bitrate=1398.3kbits/s speed=0.00895x elapsed=0:02:47.67    \nframe=   47 fps=0.3 q=44.8 size=     256KiB time=00:00:01.50 bitrate=1398.3kbits/s speed=0.00892x elapsed=0:02:48.20    \nframe=   47 fps=0.3 q=44.8 size=     256KiB time=00:00:01.50 bitrate=1398.3kbits/s speed=0.00889x elapsed=0:02:48.72    \nframe=   47 fps=0.3 q=44.8 size=     256KiB time=00:00:01.50 bitrate=1398.3kbits/s speed=0.00886x elapsed=0:02:49.24    \nframe=   47 fps=0.3 q=44.8 size=     256KiB time=00:00:01.50 bitrate=1398.3kbits/s speed=0.00884x elapsed=0:02:49.77    \nframe=   47 fps=0.3 q=44.8 size=     256KiB time=00:00:01.50 bitrate=1398.3kbits/s speed=0.00881x elapsed=0:02:50.31    \nframe=   48 fps=0.3 q=46.0 size=     512KiB time=00:00:01.53 bitrate=2735.6kbits/s speed=0.00897x elapsed=0:02:50.88    \nframe=   48 fps=0.3 q=46.0 size=     512KiB time=00:00:01.53 bitrate=2735.6kbits/s speed=0.00894x elapsed=0:02:51.44    \nframe=   48 fps=0.3 q=46.0 size=     512KiB time=00:00:01.53 bitrate=2735.6kbits/s speed=0.00891x elapsed=0:02:52.03    \nframe=   48 fps=0.3 q=46.0 size=     512KiB time=00:00:01.53 bitrate=2735.6kbits/s speed=0.00888x elapsed=0:02:52.64    \nframe=   48 fps=0.3 q=46.0 size=     512KiB time=00:00:01.53 bitrate=2735.6kbits/s speed=0.00885x elapsed=0:02:53.20    \nframe=   49 fps=0.3 q=47.6 size=     512KiB time=00:00:01.56 bitrate=2677.4kbits/s speed=0.00902x elapsed=0:02:53.74    \nframe=   49 fps=0.3 q=47.6 size=     512KiB time=00:00:01.56 bitrate=2677.4kbits/s speed=0.00899x elapsed=0:02:54.28    \nframe=   49 fps=0.3 q=47.6 size=     512KiB time=00:00:01.56 bitrate=2677.4kbits/s speed=0.00896x elapsed=0:02:54.80    \nframe=   49 fps=0.3 q=47.6 size=     512KiB time=00:00:01.56 bitrate=2677.4kbits/s speed=0.00893x elapsed=0:02:55.34    \nframe=   49 fps=0.3 q=47.6 size=     512KiB time=00:00:01.56 bitrate=2677.4kbits/s speed=0.00891x elapsed=0:02:55.86    \nframe=   49 fps=0.3 q=47.6 size=     512KiB time=00:00:01.56 bitrate=2677.4kbits/s speed=0.00888x elapsed=0:02:56.40    \nframe=   49 fps=0.3 q=47.6 size=     512KiB time=00:00:01.56 bitrate=2677.4kbits/s speed=0.00885x elapsed=0:02:56.93    \nframe=   49 fps=0.3 q=47.6 size=     512KiB time=00:00:01.56 bitrate=2677.4kbits/s speed=0.00883x elapsed=0:02:57.49    \nframe=   49 fps=0.3 q=47.6 size=     512KiB time=00:00:01.56 bitrate=2677.4kbits/s speed=0.0088x elapsed=0:02:58.00    \nframe=   49 fps=0.3 q=47.6 size=     512KiB time=00:00:01.56 bitrate=2677.4kbits/s speed=0.00878x elapsed=0:02:58.52    \nframe=   49 fps=0.3 q=47.6 size=     512KiB time=00:00:01.56 bitrate=2677.4kbits/s speed=0.00875x elapsed=0:02:59.04    \nframe=   50 fps=0.3 q=47.4 size=     512KiB time=00:00:01.60 bitrate=2621.7kbits/s speed=0.00891x elapsed=0:02:59.60    \nframe=   50 fps=0.3 q=47.4 size=     512KiB time=00:00:01.60 bitrate=2621.7kbits/s speed=0.00888x elapsed=0:03:00.15    \nframe=   50 fps=0.3 q=47.4 size=     512KiB time=00:00:01.60 bitrate=2621.7kbits/s speed=0.00885x elapsed=0:03:00.71    \nframe=   50 fps=0.3 q=47.4 size=     512KiB time=00:00:01.60 bitrate=2621.7kbits/s speed=0.00883x elapsed=0:03:01.24    \nframe=   50 fps=0.3 q=47.4 size=     512KiB time=00:00:01.60 bitrate=2621.7kbits/s speed=0.0088x elapsed=0:03:01.78    \nframe=   51 fps=0.3 q=47.5 size=     512KiB time=00:00:01.63 bitrate=2568.2kbits/s speed=0.00896x elapsed=0:03:02.32    \nframe=   51 fps=0.3 q=47.5 size=     512KiB time=00:00:01.63 bitrate=2568.2kbits/s speed=0.00893x elapsed=0:03:02.83    \nframe=   51 fps=0.3 q=47.5 size=     512KiB time=00:00:01.63 bitrate=2568.2kbits/s speed=0.00891x elapsed=0:03:03.38    \nframe=   51 fps=0.3 q=47.5 size=     512KiB time=00:00:01.63 bitrate=2568.2kbits/s speed=0.00888x elapsed=0:03:03.92    \nframe=   51 fps=0.3 q=47.5 size=     512KiB time=00:00:01.63 bitrate=2568.2kbits/s speed=0.00885x elapsed=0:03:04.46    \nframe=   51 fps=0.3 q=47.5 size=     512KiB time=00:00:01.63 bitrate=2568.2kbits/s speed=0.00883x elapsed=0:03:05.00    \nframe=   51 fps=0.3 q=47.5 size=     512KiB time=00:00:01.63 bitrate=2568.2kbits/s speed=0.0088x elapsed=0:03:05.57    \nframe=   51 fps=0.3 q=47.5 size=     512KiB time=00:00:01.63 bitrate=2568.2kbits/s speed=0.00878x elapsed=0:03:06.12    \nframe=   51 fps=0.3 q=47.5 size=     512KiB time=00:00:01.63 bitrate=2568.2kbits/s speed=0.00875x elapsed=0:03:06.63    \nframe=   51 fps=0.3 q=47.5 size=     512KiB time=00:00:01.63 bitrate=2568.2kbits/s speed=0.00873x elapsed=0:03:07.15    \nframe=   52 fps=0.3 q=44.9 size=     512KiB time=00:00:01.66 bitrate=2516.8kbits/s speed=0.00888x elapsed=0:03:07.67    \nframe=   52 fps=0.3 q=44.9 size=     512KiB time=00:00:01.66 bitrate=2516.8kbits/s speed=0.00885x elapsed=0:03:08.25    \nframe=   52 fps=0.3 q=44.9 size=     512KiB time=00:00:01.66 bitrate=2516.8kbits/s speed=0.00883x elapsed=0:03:08.78    \nframe=   52 fps=0.3 q=44.9 size=     512KiB time=00:00:01.66 bitrate=2516.8kbits/s speed=0.0088x elapsed=0:03:09.32    \nframe=   52 fps=0.3 q=44.9 size=     512KiB time=00:00:01.66 bitrate=2516.8kbits/s speed=0.00878x elapsed=0:03:09.87    \nframe=   52 fps=0.3 q=44.9 size=     512KiB time=00:00:01.66 bitrate=2516.8kbits/s speed=0.00875x elapsed=0:03:10.40    \nframe=   52 fps=0.3 q=44.9 size=     512KiB time=00:00:01.66 bitrate=2516.8kbits/s speed=0.00873x elapsed=0:03:10.94    \nframe=   52 fps=0.3 q=44.9 size=     512KiB time=00:00:01.66 bitrate=2516.8kbits/s speed=0.00871x elapsed=0:03:11.44    \nframe=   52 fps=0.3 q=44.9 size=     512KiB time=00:00:01.66 bitrate=2516.8kbits/s speed=0.00868x elapsed=0:03:11.97    \nframe=   52 fps=0.3 q=44.9 size=     512KiB time=00:00:01.66 bitrate=2516.8kbits/s speed=0.00866x elapsed=0:03:12.50    \nframe=   52 fps=0.3 q=44.9 size=     512KiB time=00:00:01.66 bitrate=2516.8kbits/s speed=0.00863x elapsed=0:03:13.07    \nframe=   52 fps=0.3 q=44.9 size=     512KiB time=00:00:01.66 bitrate=2516.8kbits/s speed=0.00861x elapsed=0:03:13.68    \nframe=   53 fps=0.3 q=46.2 size=     512KiB time=00:00:01.70 bitrate=2467.4kbits/s speed=0.00875x elapsed=0:03:14.28    \nframe=   53 fps=0.3 q=46.2 size=     512KiB time=00:00:01.70 bitrate=2467.4kbits/s speed=0.00872x elapsed=0:03:14.89    \nframe=   53 fps=0.3 q=46.2 size=     512KiB time=00:00:01.70 bitrate=2467.4kbits/s speed=0.00869x elapsed=0:03:15.52    \nframe=   53 fps=0.3 q=46.2 size=     512KiB time=00:00:01.70 bitrate=2467.4kbits/s speed=0.00867x elapsed=0:03:16.13    \nframe=   53 fps=0.3 q=46.2 size=     512KiB time=00:00:01.70 bitrate=2467.4kbits/s speed=0.00864x elapsed=0:03:16.78    \nframe=   53 fps=0.3 q=46.2 size=     512KiB time=00:00:01.70 bitrate=2467.4kbits/s speed=0.00861x elapsed=0:03:17.41    \nframe=   53 fps=0.3 q=46.2 size=     512KiB time=00:00:01.70 bitrate=2467.4kbits/s speed=0.00859x elapsed=0:03:17.98    \nframe=   53 fps=0.3 q=46.2 size=     512KiB time=00:00:01.70 bitrate=2467.4kbits/s speed=0.00856x elapsed=0:03:18.55    \nframe=   53 fps=0.3 q=46.2 size=     512KiB time=00:00:01.70 bitrate=2467.4kbits/s speed=0.00854x elapsed=0:03:19.15    \nframe=   53 fps=0.3 q=46.2 size=     512KiB time=00:00:01.70 bitrate=2467.4kbits/s speed=0.00851x elapsed=0:03:19.73    \nframe=   53 fps=0.3 q=46.2 size=     512KiB time=00:00:01.70 bitrate=2467.4kbits/s speed=0.00849x elapsed=0:03:20.35    \nframe=   53 fps=0.3 q=46.2 size=     512KiB time=00:00:01.70 bitrate=2467.4kbits/s speed=0.00846x elapsed=0:03:20.90    \nframe=   53 fps=0.3 q=46.2 size=     512KiB time=00:00:01.70 bitrate=2467.4kbits/s speed=0.00844x elapsed=0:03:21.45    \nframe=   53 fps=0.3 q=46.2 size=     512KiB time=00:00:01.70 bitrate=2467.4kbits/s speed=0.00842x elapsed=0:03:22.00    \nframe=   53 fps=0.3 q=46.2 size=     512KiB time=00:00:01.70 bitrate=2467.4kbits/s speed=0.00839x elapsed=0:03:22.61    \nframe=   53 fps=0.3 q=46.2 size=     512KiB time=00:00:01.70 bitrate=2467.4kbits/s speed=0.00836x elapsed=0:03:23.26    \nframe=   53 fps=0.3 q=46.2 size=     512KiB time=00:00:01.70 bitrate=2467.4kbits/s speed=0.00834x elapsed=0:03:23.84    \nframe=   53 fps=0.3 q=46.2 size=     512KiB time=00:00:01.70 bitrate=2467.4kbits/s speed=0.00832x elapsed=0:03:24.40    \nframe=   53 fps=0.3 q=46.2 size=     512KiB time=00:00:01.70 bitrate=2467.4kbits/s speed=0.00829x elapsed=0:03:24.96    \nframe=   53 fps=0.3 q=46.2 size=     512KiB time=00:00:01.70 bitrate=2467.4kbits/s speed=0.00827x elapsed=0:03:25.53    \nframe=   53 fps=0.3 q=46.2 size=     512KiB time=00:00:01.70 bitrate=2467.4kbits/s speed=0.00825x elapsed=0:03:26.09    \nframe=   54 fps=0.3 q=47.6 size=     512KiB time=00:00:01.73 bitrate=2420.0kbits/s speed=0.00839x elapsed=0:03:26.63    \nframe=   54 fps=0.3 q=47.6 size=     512KiB time=00:00:01.73 bitrate=2420.0kbits/s speed=0.00837x elapsed=0:03:27.16    \nframe=   54 fps=0.3 q=47.6 size=     512KiB time=00:00:01.73 bitrate=2420.0kbits/s speed=0.00835x elapsed=0:03:27.69    \nframe=   54 fps=0.3 q=47.6 size=     512KiB time=00:00:01.73 bitrate=2420.0kbits/s speed=0.00832x elapsed=0:03:28.21    \nframe=   54 fps=0.3 q=47.6 size=     512KiB time=00:00:01.73 bitrate=2420.0kbits/s speed=0.0083x elapsed=0:03:28.79    \nframe=   54 fps=0.3 q=47.6 size=     512KiB time=00:00:01.73 bitrate=2420.0kbits/s speed=0.00828x elapsed=0:03:29.37    \nframe=   54 fps=0.3 q=47.6 size=     512KiB time=00:00:01.73 bitrate=2420.0kbits/s speed=0.00826x elapsed=0:03:29.94    \nframe=   54 fps=0.3 q=47.6 size=     512KiB time=00:00:01.73 bitrate=2420.0kbits/s speed=0.00823x elapsed=0:03:30.50    \nframe=   54 fps=0.3 q=47.6 size=     512KiB time=00:00:01.73 bitrate=2420.0kbits/s speed=0.00821x elapsed=0:03:31.02    \nframe=   54 fps=0.3 q=47.6 size=     512KiB time=00:00:01.73 bitrate=2420.0kbits/s speed=0.00819x elapsed=0:03:31.55    \nframe=   54 fps=0.3 q=47.6 size=     512KiB time=00:00:01.73 bitrate=2420.0kbits/s speed=0.00817x elapsed=0:03:32.07    \nframe=   54 fps=0.3 q=47.6 size=     512KiB time=00:00:01.73 bitrate=2420.0kbits/s speed=0.00815x elapsed=0:03:32.60    \nframe=   54 fps=0.3 q=47.6 size=     512KiB time=00:00:01.73 bitrate=2420.0kbits/s speed=0.00813x elapsed=0:03:33.18    \nframe=   54 fps=0.3 q=47.6 size=     512KiB time=00:00:01.73 bitrate=2420.0kbits/s speed=0.00811x elapsed=0:03:33.78    \nframe=   55 fps=0.3 q=47.7 size=     512KiB time=00:00:01.76 bitrate=2374.3kbits/s speed=0.00824x elapsed=0:03:34.36    \nframe=   55 fps=0.3 q=47.7 size=     512KiB time=00:00:01.76 bitrate=2374.3kbits/s speed=0.00822x elapsed=0:03:34.91    \nframe=   55 fps=0.3 q=47.7 size=     512KiB time=00:00:01.76 bitrate=2374.3kbits/s speed=0.0082x elapsed=0:03:35.49    \nframe=   55 fps=0.3 q=47.7 size=     512KiB time=00:00:01.76 bitrate=2374.3kbits/s speed=0.00818x elapsed=0:03:36.07    \nframe=   55 fps=0.3 q=47.7 size=     512KiB time=00:00:01.76 bitrate=2374.3kbits/s speed=0.00816x elapsed=0:03:36.60    \nframe=   55 fps=0.3 q=47.7 size=     512KiB time=00:00:01.76 bitrate=2374.3kbits/s speed=0.00814x elapsed=0:03:37.15    \nframe=   55 fps=0.3 q=47.7 size=     512KiB time=00:00:01.76 bitrate=2374.3kbits/s speed=0.00812x elapsed=0:03:37.68    \nframe=   55 fps=0.3 q=47.7 size=     512KiB time=00:00:01.76 bitrate=2374.3kbits/s speed=0.00809x elapsed=0:03:38.25    \nframe=   56 fps=0.3 q=47.6 size=     512KiB time=00:00:01.80 bitrate=2330.4kbits/s speed=0.00823x elapsed=0:03:38.80    \nframe=   56 fps=0.3 q=47.6 size=     512KiB time=00:00:01.80 bitrate=2330.4kbits/s speed=0.00821x elapsed=0:03:39.35    \nframe=   56 fps=0.3 q=47.6 size=     512KiB time=00:00:01.80 bitrate=2330.4kbits/s speed=0.00818x elapsed=0:03:39.92    \nframe=   56 fps=0.3 q=47.6 size=     512KiB time=00:00:01.80 bitrate=2330.4kbits/s speed=0.00816x elapsed=0:03:40.49    \nframe=   56 fps=0.3 q=47.6 size=     512KiB time=00:00:01.80 bitrate=2330.4kbits/s speed=0.00814x elapsed=0:03:41.03    \nframe=   56 fps=0.3 q=47.6 size=     512KiB time=00:00:01.80 bitrate=2330.4kbits/s speed=0.00812x elapsed=0:03:41.63    \nframe=   56 fps=0.3 q=47.6 size=     512KiB time=00:00:01.80 bitrate=2330.4kbits/s speed=0.0081x elapsed=0:03:42.23    \nframe=   56 fps=0.3 q=47.6 size=     512KiB time=00:00:01.80 bitrate=2330.4kbits/s speed=0.00808x elapsed=0:03:42.79    \nframe=   56 fps=0.3 q=47.6 size=     512KiB time=00:00:01.80 bitrate=2330.4kbits/s speed=0.00806x elapsed=0:03:43.33    \nframe=   57 fps=0.3 q=44.9 size=     512KiB time=00:00:01.83 bitrate=2288.0kbits/s speed=0.00819x elapsed=0:03:43.86    \nframe=   57 fps=0.3 q=44.9 size=     512KiB time=00:00:01.83 bitrate=2288.0kbits/s speed=0.00817x elapsed=0:03:44.44    \nframe=   57 fps=0.3 q=44.9 size=     512KiB time=00:00:01.83 bitrate=2288.0kbits/s speed=0.00815x elapsed=0:03:44.97    \nframe=   57 fps=0.3 q=44.9 size=     512KiB time=00:00:01.83 bitrate=2288.0kbits/s speed=0.00813x elapsed=0:03:45.50    \nframe=   57 fps=0.3 q=44.9 size=     512KiB time=00:00:01.83 bitrate=2288.0kbits/s speed=0.00811x elapsed=0:03:46.05    \nframe=   57 fps=0.3 q=44.9 size=     512KiB time=00:00:01.83 bitrate=2288.0kbits/s speed=0.00809x elapsed=0:03:46.59    \nframe=   57 fps=0.3 q=44.9 size=     512KiB time=00:00:01.83 bitrate=2288.0kbits/s speed=0.00807x elapsed=0:03:47.16    \nframe=   57 fps=0.3 q=44.9 size=     512KiB time=00:00:01.83 bitrate=2288.0kbits/s speed=0.00805x elapsed=0:03:47.70    \nframe=   57 fps=0.2 q=44.9 size=     512KiB time=00:00:01.83 bitrate=2288.0kbits/s speed=0.00803x elapsed=0:03:48.26    \nframe=   57 fps=0.2 q=44.9 size=     512KiB time=00:00:01.83 bitrate=2288.0kbits/s speed=0.00801x elapsed=0:03:48.81    \nframe=   58 fps=0.3 q=46.2 size=     512KiB time=00:00:01.86 bitrate=2247.1kbits/s speed=0.00814x elapsed=0:03:49.33    \nframe=   58 fps=0.3 q=46.2 size=     512KiB time=00:00:01.86 bitrate=2247.1kbits/s speed=0.00812x elapsed=0:03:49.86    \nframe=   58 fps=0.3 q=46.2 size=     512KiB time=00:00:01.86 bitrate=2247.1kbits/s speed=0.0081x elapsed=0:03:50.44    \nframe=   58 fps=0.3 q=46.2 size=     512KiB time=00:00:01.86 bitrate=2247.1kbits/s speed=0.00808x elapsed=0:03:51.10    \nframe=   58 fps=0.3 q=46.2 size=     512KiB time=00:00:01.86 bitrate=2247.1kbits/s speed=0.00806x elapsed=0:03:51.66    \nframe=   58 fps=0.2 q=46.2 size=     512KiB time=00:00:01.86 bitrate=2247.1kbits/s speed=0.00804x elapsed=0:03:52.21    \nframe=   58 fps=0.2 q=46.2 size=     512KiB time=00:00:01.86 bitrate=2247.1kbits/s speed=0.00802x elapsed=0:03:52.75    \nframe=   58 fps=0.2 q=46.2 size=     512KiB time=00:00:01.86 bitrate=2247.1kbits/s speed=0.008x elapsed=0:03:53.30    \nframe=   58 fps=0.2 q=46.2 size=     512KiB time=00:00:01.86 bitrate=2247.1kbits/s speed=0.00798x elapsed=0:03:53.84    \nframe=   58 fps=0.2 q=46.2 size=     512KiB time=00:00:01.86 bitrate=2247.1kbits/s speed=0.00796x elapsed=0:03:54.38    \nframe=   58 fps=0.2 q=46.2 size=     512KiB time=00:00:01.86 bitrate=2247.1kbits/s speed=0.00794x elapsed=0:03:54.94    \nframe=   58 fps=0.2 q=46.2 size=     512KiB time=00:00:01.86 bitrate=2247.1kbits/s speed=0.00793x elapsed=0:03:55.53    \nframe=   58 fps=0.2 q=46.2 size=     512KiB time=00:00:01.86 bitrate=2247.1kbits/s speed=0.00791x elapsed=0:03:56.09    \nframe=   58 fps=0.2 q=46.2 size=     512KiB time=00:00:01.86 bitrate=2247.1kbits/s speed=0.00789x elapsed=0:03:56.61    \nframe=   59 fps=0.2 q=47.7 size=     512KiB time=00:00:01.90 bitrate=2207.7kbits/s speed=0.00801x elapsed=0:03:57.12    \nframe=   60 fps=0.3 q=47.4 size=     512KiB time=00:00:01.93 bitrate=2169.7kbits/s speed=0.00813x elapsed=0:03:57.66    \nframe=   60 fps=0.3 q=47.4 size=     512KiB time=00:00:01.93 bitrate=2169.7kbits/s speed=0.00812x elapsed=0:03:58.21    \nframe=   60 fps=0.3 q=47.4 size=     512KiB time=00:00:01.93 bitrate=2169.7kbits/s speed=0.0081x elapsed=0:03:58.74    \nframe=   60 fps=0.3 q=47.4 size=     512KiB time=00:00:01.93 bitrate=2169.7kbits/s speed=0.00808x elapsed=0:03:59.26    \nframe=   60 fps=0.3 q=47.4 size=     512KiB time=00:00:01.93 bitrate=2169.7kbits/s speed=0.00806x elapsed=0:03:59.82    \nframe=   60 fps=0.2 q=47.4 size=     512KiB time=00:00:01.93 bitrate=2169.7kbits/s speed=0.00804x elapsed=0:04:00.45    \nframe=   60 fps=0.2 q=47.4 size=     512KiB time=00:00:01.93 bitrate=2169.7kbits/s speed=0.00802x elapsed=0:04:01.01    \nframe=   60 fps=0.2 q=47.4 size=     512KiB time=00:00:01.93 bitrate=2169.7kbits/s speed=0.008x elapsed=0:04:01.55    \nframe=   60 fps=0.2 q=47.4 size=     512KiB time=00:00:01.93 bitrate=2169.7kbits/s speed=0.00798x elapsed=0:04:02.12    \nframe=   60 fps=0.2 q=47.4 size=     512KiB time=00:00:01.93 bitrate=2169.7kbits/s speed=0.00797x elapsed=0:04:02.66    \nframe=   61 fps=0.3 q=47.6 size=     512KiB time=00:00:01.96 bitrate=2132.9kbits/s speed=0.00809x elapsed=0:04:03.18    \nframe=   61 fps=0.3 q=47.6 size=     512KiB time=00:00:01.96 bitrate=2132.9kbits/s speed=0.00807x elapsed=0:04:03.70    \nframe=   61 fps=0.2 q=47.6 size=     512KiB time=00:00:01.96 bitrate=2132.9kbits/s speed=0.00805x elapsed=0:04:04.23    \nframe=   61 fps=0.2 q=47.6 size=     512KiB time=00:00:01.96 bitrate=2132.9kbits/s speed=0.00803x elapsed=0:04:04.81    \nframe=   62 fps=0.3 q=44.7 size=     512KiB time=00:00:02.00 bitrate=2097.3kbits/s speed=0.00815x elapsed=0:04:05.35    \nframe=   62 fps=0.3 q=44.7 size=     512KiB time=00:00:02.00 bitrate=2097.3kbits/s speed=0.00813x elapsed=0:04:05.88    \nframe=   62 fps=0.3 q=44.7 size=     512KiB time=00:00:02.00 bitrate=2097.3kbits/s speed=0.00812x elapsed=0:04:06.40    \nframe=   62 fps=0.3 q=44.7 size=     512KiB time=00:00:02.00 bitrate=2097.3kbits/s speed=0.0081x elapsed=0:04:06.92    \nframe=   62 fps=0.3 q=44.7 size=     512KiB time=00:00:02.00 bitrate=2097.3kbits/s speed=0.00808x elapsed=0:04:07.44    \nframe=   62 fps=0.3 q=44.7 size=     512KiB time=00:00:02.00 bitrate=2097.3kbits/s speed=0.00807x elapsed=0:04:07.96    \nframe=   63 fps=0.3 q=46.1 size=     512KiB time=00:00:02.03 bitrate=2062.9kbits/s speed=0.00818x elapsed=0:04:08.47    \nframe=   63 fps=0.3 q=46.1 size=     512KiB time=00:00:02.03 bitrate=2062.9kbits/s speed=0.00817x elapsed=0:04:09.00    \nframe=   64 fps=0.3 q=47.9 size=     512KiB time=00:00:02.06 bitrate=2029.7kbits/s speed=0.00828x elapsed=0:04:09.52    \nframe=   64 fps=0.3 q=47.9 size=     512KiB time=00:00:02.06 bitrate=2029.7kbits/s speed=0.00826x elapsed=0:04:10.05    \nframe=   64 fps=0.3 q=47.9 size=     512KiB time=00:00:02.06 bitrate=2029.7kbits/s speed=0.00825x elapsed=0:04:10.56    \nframe=   64 fps=0.3 q=47.9 size=     512KiB time=00:00:02.06 bitrate=2029.7kbits/s speed=0.00823x elapsed=0:04:11.07    \nframe=   64 fps=0.3 q=47.9 size=     512KiB time=00:00:02.06 bitrate=2029.7kbits/s speed=0.00821x elapsed=0:04:11.62    \nframe=   65 fps=0.3 q=48.1 size=     512KiB time=00:00:02.06 bitrate=2029.7kbits/s speed=0.0082x elapsed=0:04:12.15    \nframe=   65 fps=0.3 q=48.1 size=     512KiB time=00:00:02.10 bitrate=1997.5kbits/s speed=0.00831x elapsed=0:04:12.68    \nframe=   65 fps=0.3 q=48.1 size=     512KiB time=00:00:02.10 bitrate=1997.5kbits/s speed=0.00829x elapsed=0:04:13.19    \nframe=   65 fps=0.3 q=48.1 size=     512KiB time=00:00:02.10 bitrate=1997.5kbits/s speed=0.00828x elapsed=0:04:13.72    \nframe=   65 fps=0.3 q=48.1 size=     512KiB time=00:00:02.10 bitrate=1997.5kbits/s speed=0.00826x elapsed=0:04:14.25    \nframe=   66 fps=0.3 q=44.8 size=     512KiB time=00:00:02.13 bitrate=1966.2kbits/s speed=0.00837x elapsed=0:04:14.77    \nframe=   67 fps=0.3 q=46.3 size=     512KiB time=00:00:02.16 bitrate=1936.0kbits/s speed=0.00849x elapsed=0:04:15.31    \nframe=   67 fps=0.3 q=46.3 size=     512KiB time=00:00:02.16 bitrate=1936.0kbits/s speed=0.00847x elapsed=0:04:15.84    \nframe=   67 fps=0.3 q=46.3 size=     512KiB time=00:00:02.16 bitrate=1936.0kbits/s speed=0.00845x elapsed=0:04:16.36    \nframe=   68 fps=0.3 q=48.0 size=     512KiB time=00:00:02.20 bitrate=1906.7kbits/s speed=0.00856x elapsed=0:04:16.89    \nframe=   68 fps=0.3 q=48.0 size=     512KiB time=00:00:02.20 bitrate=1906.7kbits/s speed=0.00855x elapsed=0:04:17.41    \nframe=   68 fps=0.3 q=48.0 size=     512KiB time=00:00:02.20 bitrate=1906.7kbits/s speed=0.00853x elapsed=0:04:17.93    \nframe=   68 fps=0.3 q=48.0 size=     512KiB time=00:00:02.20 bitrate=1906.7kbits/s speed=0.00851x elapsed=0:04:18.46    \nframe=   68 fps=0.3 q=48.0 size=     512KiB time=00:00:02.20 bitrate=1906.7kbits/s speed=0.00849x elapsed=0:04:19.00    \nframe=   68 fps=0.3 q=48.0 size=     512KiB time=00:00:02.20 bitrate=1906.7kbits/s speed=0.00848x elapsed=0:04:19.52    \nframe=   69 fps=0.3 q=47.8 size=     512KiB time=00:00:02.23 bitrate=1878.2kbits/s speed=0.00859x elapsed=0:04:20.05    \nframe=   69 fps=0.3 q=47.8 size=     512KiB time=00:00:02.23 bitrate=1878.2kbits/s speed=0.00857x elapsed=0:04:20.56    \nframe=   69 fps=0.3 q=47.8 size=     512KiB time=00:00:02.23 bitrate=1878.2kbits/s speed=0.00855x elapsed=0:04:21.08    \nframe=   70 fps=0.3 q=47.7 size=     512KiB time=00:00:02.26 bitrate=1850.6kbits/s speed=0.00866x elapsed=0:04:21.60    \nframe=   70 fps=0.3 q=47.7 size=     512KiB time=00:00:02.26 bitrate=1850.6kbits/s speed=0.00865x elapsed=0:04:22.13    \nframe=   70 fps=0.3 q=47.7 size=     512KiB time=00:00:02.26 bitrate=1850.6kbits/s speed=0.00863x elapsed=0:04:22.66    \nframe=   70 fps=0.3 q=47.7 size=     512KiB time=00:00:02.26 bitrate=1850.6kbits/s speed=0.00861x elapsed=0:04:23.18    \nframe=   70 fps=0.3 q=47.7 size=     512KiB time=00:00:02.26 bitrate=1850.6kbits/s speed=0.0086x elapsed=0:04:23.71    \nframe=   70 fps=0.3 q=47.7 size=     512KiB time=00:00:02.26 bitrate=1850.6kbits/s speed=0.00858x elapsed=0:04:24.24    \nframe=   70 fps=0.3 q=47.7 size=     512KiB time=00:00:02.26 bitrate=1850.6kbits/s speed=0.00856x elapsed=0:04:24.77    \nframe=   70 fps=0.3 q=47.7 size=     512KiB time=00:00:02.26 bitrate=1850.6kbits/s speed=0.00854x elapsed=0:04:25.29    \nframe=   71 fps=0.3 q=45.0 size=     512KiB time=00:00:02.30 bitrate=1823.8kbits/s speed=0.00865x elapsed=0:04:25.80    \nframe=   72 fps=0.3 q=46.2 size=     512KiB time=00:00:02.33 bitrate=1797.7kbits/s speed=0.00876x elapsed=0:04:26.32    \nframe=   72 fps=0.3 q=46.2 size=     512KiB time=00:00:02.33 bitrate=1797.7kbits/s speed=0.00874x elapsed=0:04:26.83    \nframe=   73 fps=0.3 q=47.6 size=     512KiB time=00:00:02.36 bitrate=1772.4kbits/s speed=0.00885x elapsed=0:04:27.35    \nframe=   73 fps=0.3 q=47.6 size=     512KiB time=00:00:02.36 bitrate=1772.4kbits/s speed=0.00883x elapsed=0:04:27.89    \nframe=   73 fps=0.3 q=47.6 size=     512KiB time=00:00:02.36 bitrate=1772.4kbits/s speed=0.00882x elapsed=0:04:28.40    \nframe=   73 fps=0.3 q=47.6 size=     512KiB time=00:00:02.36 bitrate=1772.4kbits/s speed=0.0088x elapsed=0:04:28.95    \nframe=   73 fps=0.3 q=47.6 size=     512KiB time=00:00:02.36 bitrate=1772.4kbits/s speed=0.00878x elapsed=0:04:29.46    \nframe=   73 fps=0.3 q=47.6 size=     512KiB time=00:00:02.36 bitrate=1772.4kbits/s speed=0.00876x elapsed=0:04:30.02    \nframe=   74 fps=0.3 q=47.8 size=     512KiB time=00:00:02.40 bitrate=1747.8kbits/s speed=0.00887x elapsed=0:04:30.54    \nframe=   74 fps=0.3 q=47.8 size=     512KiB time=00:00:02.40 bitrate=1747.8kbits/s speed=0.00885x elapsed=0:04:31.07    \nframe=   75 fps=0.3 q=44.9 size=     512KiB time=00:00:02.43 bitrate=1723.8kbits/s speed=0.00896x elapsed=0:04:31.59    \nframe=   75 fps=0.3 q=44.9 size=     512KiB time=00:00:02.43 bitrate=1723.8kbits/s speed=0.00894x elapsed=0:04:32.10    \nframe=   75 fps=0.3 q=44.9 size=     512KiB time=00:00:02.43 bitrate=1723.8kbits/s speed=0.00892x elapsed=0:04:32.65    \nframe=   76 fps=0.3 q=45.6 size=     768KiB time=00:00:02.46 bitrate=2550.7kbits/s speed=0.00903x elapsed=0:04:33.19    \nframe=   76 fps=0.3 q=45.6 size=     768KiB time=00:00:02.46 bitrate=2550.7kbits/s speed=0.00901x elapsed=0:04:33.73    \nframe=   76 fps=0.3 q=45.6 size=     768KiB time=00:00:02.46 bitrate=2550.7kbits/s speed=0.00899x elapsed=0:04:34.25    \nframe=   76 fps=0.3 q=45.6 size=     768KiB time=00:00:02.46 bitrate=2550.7kbits/s speed=0.00898x elapsed=0:04:34.77    \nframe=   76 fps=0.3 q=45.6 size=     768KiB time=00:00:02.46 bitrate=2550.7kbits/s speed=0.00896x elapsed=0:04:35.29    \nframe=   77 fps=0.3 q=47.5 size=     768KiB time=00:00:02.50 bitrate=2516.7kbits/s speed=0.00906x elapsed=0:04:35.82    \nframe=   77 fps=0.3 q=47.5 size=     768KiB time=00:00:02.50 bitrate=2516.7kbits/s speed=0.00905x elapsed=0:04:36.34    \nframe=   77 fps=0.3 q=47.5 size=     768KiB time=00:00:02.50 bitrate=2516.7kbits/s speed=0.00903x elapsed=0:04:36.88    \nframe=   78 fps=0.3 q=47.4 size=     768KiB time=00:00:02.53 bitrate=2483.6kbits/s speed=0.00913x elapsed=0:04:37.42    \nframe=   78 fps=0.3 q=47.4 size=     768KiB time=00:00:02.53 bitrate=2483.6kbits/s speed=0.00911x elapsed=0:04:37.94    \nframe=   78 fps=0.3 q=47.4 size=     768KiB time=00:00:02.53 bitrate=2483.6kbits/s speed=0.0091x elapsed=0:04:38.48    \nframe=   78 fps=0.3 q=47.4 size=     768KiB time=00:00:02.53 bitrate=2483.6kbits/s speed=0.00908x elapsed=0:04:39.00    \nframe=   78 fps=0.3 q=47.4 size=     768KiB time=00:00:02.53 bitrate=2483.6kbits/s speed=0.00906x elapsed=0:04:39.55    \nframe=   79 fps=0.3 q=47.1 size=     768KiB time=00:00:02.56 bitrate=2451.4kbits/s speed=0.00916x elapsed=0:04:40.10    \nframe=   79 fps=0.3 q=47.1 size=     768KiB time=00:00:02.56 bitrate=2451.4kbits/s speed=0.00915x elapsed=0:04:40.61    \nframe=   79 fps=0.3 q=47.1 size=     768KiB time=00:00:02.56 bitrate=2451.4kbits/s speed=0.00913x elapsed=0:04:41.14    \nframe=   79 fps=0.3 q=47.1 size=     768KiB time=00:00:02.56 bitrate=2451.4kbits/s speed=0.00911x elapsed=0:04:41.67    \nframe=   79 fps=0.3 q=47.1 size=     768KiB time=00:00:02.56 bitrate=2451.4kbits/s speed=0.0091x elapsed=0:04:42.18    \nframe=   79 fps=0.3 q=47.1 size=     768KiB time=00:00:02.56 bitrate=2451.4kbits/s speed=0.00908x elapsed=0:04:42.70    \nframe=   79 fps=0.3 q=47.1 size=     768KiB time=00:00:02.56 bitrate=2451.4kbits/s speed=0.00906x elapsed=0:04:43.22    \nframe=   79 fps=0.3 q=47.1 size=     768KiB time=00:00:02.56 bitrate=2451.4kbits/s speed=0.00904x elapsed=0:04:43.76    \nframe=   79 fps=0.3 q=47.1 size=     768KiB time=00:00:02.56 bitrate=2451.4kbits/s speed=0.00903x elapsed=0:04:44.35    \nframe=   80 fps=0.3 q=44.4 size=     768KiB time=00:00:02.60 bitrate=2419.9kbits/s speed=0.00913x elapsed=0:04:44.90    \nframe=   80 fps=0.3 q=44.4 size=     768KiB time=00:00:02.60 bitrate=2419.9kbits/s speed=0.00911x elapsed=0:04:45.44    \nframe=   80 fps=0.3 q=44.4 size=     768KiB time=00:00:02.60 bitrate=2419.9kbits/s speed=0.00909x elapsed=0:04:45.96    \nframe=   80 fps=0.3 q=44.4 size=     768KiB time=00:00:02.60 bitrate=2419.9kbits/s speed=0.00908x elapsed=0:04:46.48    \nframe=   80 fps=0.3 q=44.4 size=     768KiB time=00:00:02.60 bitrate=2419.9kbits/s speed=0.00906x elapsed=0:04:47.01    \nframe=   80 fps=0.3 q=44.4 size=     768KiB time=00:00:02.60 bitrate=2419.9kbits/s speed=0.00904x elapsed=0:04:47.52    \nframe=   81 fps=0.3 q=45.1 size=     768KiB time=00:00:02.63 bitrate=2389.3kbits/s speed=0.00914x elapsed=0:04:48.08    \nframe=   81 fps=0.3 q=45.1 size=     768KiB time=00:00:02.63 bitrate=2389.3kbits/s speed=0.00912x elapsed=0:04:48.61    \nframe=   81 fps=0.3 q=45.1 size=     768KiB time=00:00:02.63 bitrate=2389.3kbits/s speed=0.00911x elapsed=0:04:49.13    \nframe=   81 fps=0.3 q=45.1 size=     768KiB time=00:00:02.63 bitrate=2389.3kbits/s speed=0.00909x elapsed=0:04:49.65    \nframe=   82 fps=0.3 q=46.7 size=     768KiB time=00:00:02.66 bitrate=2359.4kbits/s speed=0.00919x elapsed=0:04:50.18    \nframe=   82 fps=0.3 q=46.7 size=     768KiB time=00:00:02.66 bitrate=2359.4kbits/s speed=0.00917x elapsed=0:04:50.70    \nframe=   82 fps=0.3 q=46.7 size=     768KiB time=00:00:02.66 bitrate=2359.4kbits/s speed=0.00916x elapsed=0:04:51.24    \nframe=   83 fps=0.3 q=46.7 size=     768KiB time=00:00:02.70 bitrate=2330.3kbits/s speed=0.00925x elapsed=0:04:51.77    \nframe=   83 fps=0.3 q=46.7 size=     768KiB time=00:00:02.70 bitrate=2330.3kbits/s speed=0.00924x elapsed=0:04:52.29    \nframe=   84 fps=0.3 q=46.7 size=     768KiB time=00:00:02.73 bitrate=2301.9kbits/s speed=0.00934x elapsed=0:04:52.80    \nframe=   84 fps=0.3 q=46.7 size=     768KiB time=00:00:02.73 bitrate=2301.9kbits/s speed=0.00932x elapsed=0:04:53.32    \nframe=   84 fps=0.3 q=46.7 size=     768KiB time=00:00:02.73 bitrate=2301.9kbits/s speed=0.0093x elapsed=0:04:53.83    \nframe=   84 fps=0.3 q=46.7 size=     768KiB time=00:00:02.73 bitrate=2301.9kbits/s speed=0.00929x elapsed=0:04:54.37    \nframe=   84 fps=0.3 q=46.7 size=     768KiB time=00:00:02.73 bitrate=2301.9kbits/s speed=0.00927x elapsed=0:04:54.89    \nframe=   84 fps=0.3 q=46.7 size=     768KiB time=00:00:02.73 bitrate=2301.9kbits/s speed=0.00925x elapsed=0:04:55.44    \nframe=   84 fps=0.3 q=46.7 size=     768KiB time=00:00:02.73 bitrate=2301.9kbits/s speed=0.00923x elapsed=0:04:55.97    \nframe=   84 fps=0.3 q=46.7 size=     768KiB time=00:00:02.73 bitrate=2301.9kbits/s speed=0.00922x elapsed=0:04:56.53    \nframe=   84 fps=0.3 q=46.7 size=     768KiB time=00:00:02.73 bitrate=2301.9kbits/s speed=0.0092x elapsed=0:04:57.07    \nframe=   85 fps=0.3 q=44.4 size=     768KiB time=00:00:02.76 bitrate=2274.1kbits/s speed=0.0093x elapsed=0:04:57.59    \nframe=   85 fps=0.3 q=44.4 size=     768KiB time=00:00:02.76 bitrate=2274.1kbits/s speed=0.00928x elapsed=0:04:58.12    \nframe=   86 fps=0.3 q=44.8 size=     768KiB time=00:00:02.80 bitrate=2247.1kbits/s speed=0.00938x elapsed=0:04:58.63    \nframe=   86 fps=0.3 q=44.8 size=     768KiB time=00:00:02.80 bitrate=2247.1kbits/s speed=0.00936x elapsed=0:04:59.14    \nframe=   87 fps=0.3 q=46.5 size=     768KiB time=00:00:02.83 bitrate=2220.6kbits/s speed=0.00945x elapsed=0:04:59.66    \nframe=   87 fps=0.3 q=46.5 size=     768KiB time=00:00:02.83 bitrate=2220.6kbits/s speed=0.00944x elapsed=0:05:00.19    \nframe=   88 fps=0.3 q=46.5 size=     768KiB time=00:00:02.86 bitrate=2194.8kbits/s speed=0.00953x elapsed=0:05:00.69    \nframe=   88 fps=0.3 q=46.5 size=     768KiB time=00:00:02.86 bitrate=2194.8kbits/s speed=0.00952x elapsed=0:05:01.21    \nframe=   89 fps=0.3 q=46.6 size=     768KiB time=00:00:02.90 bitrate=2169.6kbits/s speed=0.00961x elapsed=0:05:01.73    \nframe=   90 fps=0.3 q=44.2 size=     768KiB time=00:00:02.93 bitrate=2144.9kbits/s speed=0.00971x elapsed=0:05:02.24    \nframe=   91 fps=0.3 q=45.4 size=     768KiB time=00:00:02.96 bitrate=2120.8kbits/s speed=0.0098x elapsed=0:05:02.76    \nframe=   91 fps=0.3 q=45.4 size=     768KiB time=00:00:02.96 bitrate=2120.8kbits/s speed=0.00978x elapsed=0:05:03.27    \nframe=   92 fps=0.3 q=46.5 size=     768KiB time=00:00:03.00 bitrate=2097.3kbits/s speed=0.00988x elapsed=0:05:03.78    \nframe=   92 fps=0.3 q=46.5 size=     768KiB time=00:00:03.00 bitrate=2097.3kbits/s speed=0.00986x elapsed=0:05:04.30    \nframe=   93 fps=0.3 q=46.4 size=     768KiB time=00:00:03.03 bitrate=2074.2kbits/s speed=0.00995x elapsed=0:05:04.82    \nframe=   93 fps=0.3 q=46.4 size=     768KiB time=00:00:03.03 bitrate=2074.2kbits/s speed=0.00993x elapsed=0:05:05.34    \nframe=   94 fps=0.3 q=46.6 size=     768KiB time=00:00:03.06 bitrate=2051.7kbits/s speed=0.01x elapsed=0:05:05.85    \nframe=   94 fps=0.3 q=46.6 size=     768KiB time=00:00:03.06 bitrate=2051.7kbits/s speed=0.01x elapsed=0:05:06.36    \nframe=   95 fps=0.3 q=44.0 size=     768KiB time=00:00:03.10 bitrate=2029.6kbits/s speed=0.0101x elapsed=0:05:06.87    \nframe=   96 fps=0.3 q=45.3 size=     768KiB time=00:00:03.13 bitrate=2008.0kbits/s speed=0.0102x elapsed=0:05:07.39    \nframe=   96 fps=0.3 q=45.3 size=     768KiB time=00:00:03.13 bitrate=2008.0kbits/s speed=0.0102x elapsed=0:05:07.91    \nframe=   96 fps=0.3 q=45.3 size=     768KiB time=00:00:03.13 bitrate=2008.0kbits/s speed=0.0102x elapsed=0:05:08.43    \nframe=   97 fps=0.3 q=46.4 size=     768KiB time=00:00:03.16 bitrate=1986.9kbits/s speed=0.0102x elapsed=0:05:08.99    \nframe=   97 fps=0.3 q=46.4 size=     768KiB time=00:00:03.16 bitrate=1986.9kbits/s speed=0.0102x elapsed=0:05:09.51    \nframe=   97 fps=0.3 q=46.4 size=     768KiB time=00:00:03.16 bitrate=1986.9kbits/s speed=0.0102x elapsed=0:05:10.02    \nframe=   97 fps=0.3 q=46.4 size=     768KiB time=00:00:03.16 bitrate=1986.9kbits/s speed=0.0102x elapsed=0:05:10.54    \nframe=   97 fps=0.3 q=46.4 size=     768KiB time=00:00:03.16 bitrate=1986.9kbits/s speed=0.0102x elapsed=0:05:11.06    \nframe=   97 fps=0.3 q=46.4 size=     768KiB time=00:00:03.16 bitrate=1986.9kbits/s speed=0.0102x elapsed=0:05:11.59    \nframe=   98 fps=0.3 q=46.6 size=     768KiB time=00:00:03.20 bitrate=1966.2kbits/s speed=0.0103x elapsed=0:05:12.12    \nframe=   98 fps=0.3 q=46.6 size=     768KiB time=00:00:03.20 bitrate=1966.2kbits/s speed=0.0102x elapsed=0:05:12.64    \nframe=   98 fps=0.3 q=46.6 size=     768KiB time=00:00:03.20 bitrate=1966.2kbits/s speed=0.0102x elapsed=0:05:13.15    \nframe=   98 fps=0.3 q=46.6 size=     768KiB time=00:00:03.20 bitrate=1966.2kbits/s speed=0.0102x elapsed=0:05:13.68    \nframe=   98 fps=0.3 q=46.6 size=     768KiB time=00:00:03.20 bitrate=1966.2kbits/s speed=0.0102x elapsed=0:05:14.20    \nframe=   99 fps=0.3 q=46.4 size=     768KiB time=00:00:03.23 bitrate=1945.9kbits/s speed=0.0103x elapsed=0:05:14.73    \nframe=   99 fps=0.3 q=46.4 size=     768KiB time=00:00:03.23 bitrate=1945.9kbits/s speed=0.0103x elapsed=0:05:15.26    \nframe=   99 fps=0.3 q=46.4 size=     768KiB time=00:00:03.23 bitrate=1945.9kbits/s speed=0.0102x elapsed=0:05:15.77    \nframe=  100 fps=0.3 q=44.0 size=     768KiB time=00:00:03.26 bitrate=1926.1kbits/s speed=0.0103x elapsed=0:05:16.31    \nframe=  101 fps=0.3 q=45.1 size=     768KiB time=00:00:03.30 bitrate=1906.6kbits/s speed=0.0104x elapsed=0:05:16.81    \nframe=  101 fps=0.3 q=45.1 size=     768KiB time=00:00:03.30 bitrate=1906.6kbits/s speed=0.0104x elapsed=0:05:17.35    \nframe=  101 fps=0.3 q=45.1 size=     768KiB time=00:00:03.30 bitrate=1906.6kbits/s speed=0.0104x elapsed=0:05:17.86    \nframe=  102 fps=0.3 q=46.4 size=     768KiB time=00:00:03.33 bitrate=1887.5kbits/s speed=0.0105x elapsed=0:05:18.39    \nframe=  102 fps=0.3 q=46.4 size=     768KiB time=00:00:03.33 bitrate=1887.5kbits/s speed=0.0105x elapsed=0:05:18.91    \nframe=  102 fps=0.3 q=46.4 size=     768KiB time=00:00:03.33 bitrate=1887.5kbits/s speed=0.0104x elapsed=0:05:19.44    \nframe=  103 fps=0.3 q=46.2 size=    1024KiB time=00:00:03.36 bitrate=2491.8kbits/s speed=0.0105x elapsed=0:05:19.96    \nframe=  103 fps=0.3 q=46.2 size=    1024KiB time=00:00:03.36 bitrate=2491.8kbits/s speed=0.0105x elapsed=0:05:20.48    \nframe=  103 fps=0.3 q=46.2 size=    1024KiB time=00:00:03.36 bitrate=2491.8kbits/s speed=0.0105x elapsed=0:05:21.00    \nframe=  103 fps=0.3 q=46.2 size=    1024KiB time=00:00:03.36 bitrate=2491.8kbits/s speed=0.0105x elapsed=0:05:21.53    \nframe=  103 fps=0.3 q=46.2 size=    1024KiB time=00:00:03.36 bitrate=2491.8kbits/s speed=0.0105x elapsed=0:05:22.05    \nframe=  104 fps=0.3 q=46.4 size=    1024KiB time=00:00:03.40 bitrate=2467.3kbits/s speed=0.0105x elapsed=0:05:22.57    \nframe=  104 fps=0.3 q=46.4 size=    1024KiB time=00:00:03.40 bitrate=2467.3kbits/s speed=0.0105x elapsed=0:05:23.12    \nframe=  104 fps=0.3 q=46.4 size=    1024KiB time=00:00:03.40 bitrate=2467.3kbits/s speed=0.0105x elapsed=0:05:23.63    \nframe=  104 fps=0.3 q=46.4 size=    1024KiB time=00:00:03.40 bitrate=2467.3kbits/s speed=0.0105x elapsed=0:05:24.16    \nframe=  104 fps=0.3 q=46.4 size=    1024KiB time=00:00:03.40 bitrate=2467.3kbits/s speed=0.0105x elapsed=0:05:24.69    \nframe=  104 fps=0.3 q=46.4 size=    1024KiB time=00:00:03.40 bitrate=2467.3kbits/s speed=0.0105x elapsed=0:05:25.23    \nframe=  104 fps=0.3 q=46.4 size=    1024KiB time=00:00:03.40 bitrate=2467.3kbits/s speed=0.0104x elapsed=0:05:25.75    \nframe=  104 fps=0.3 q=46.4 size=    1024KiB time=00:00:03.40 bitrate=2467.3kbits/s speed=0.0104x elapsed=0:05:26.27    \nframe=  105 fps=0.3 q=43.8 size=    1024KiB time=00:00:03.43 bitrate=2443.4kbits/s speed=0.0105x elapsed=0:05:26.81    \nframe=  106 fps=0.3 q=44.9 size=    1024KiB time=00:00:03.46 bitrate=2419.9kbits/s speed=0.0106x elapsed=0:05:27.35    \nframe=  106 fps=0.3 q=44.9 size=    1024KiB time=00:00:03.46 bitrate=2419.9kbits/s speed=0.0106x elapsed=0:05:27.88    \nframe=  106 fps=0.3 q=44.9 size=    1024KiB time=00:00:03.46 bitrate=2419.9kbits/s speed=0.0106x elapsed=0:05:28.40    \nframe=  106 fps=0.3 q=44.9 size=    1024KiB time=00:00:03.46 bitrate=2419.9kbits/s speed=0.0105x elapsed=0:05:28.94    \nframe=  106 fps=0.3 q=44.9 size=    1024KiB time=00:00:03.46 bitrate=2419.9kbits/s speed=0.0105x elapsed=0:05:29.48    \nframe=  107 fps=0.3 q=46.2 size=    1024KiB time=00:00:03.50 bitrate=2396.8kbits/s speed=0.0106x elapsed=0:05:30.01    \nframe=  107 fps=0.3 q=46.2 size=    1024KiB time=00:00:03.50 bitrate=2396.8kbits/s speed=0.0106x elapsed=0:05:30.57    \nframe=  107 fps=0.3 q=46.2 size=    1024KiB time=00:00:03.50 bitrate=2396.8kbits/s speed=0.0106x elapsed=0:05:31.11    \nframe=  107 fps=0.3 q=46.2 size=    1024KiB time=00:00:03.50 bitrate=2396.8kbits/s speed=0.0106x elapsed=0:05:31.63    \nframe=  107 fps=0.3 q=46.2 size=    1024KiB time=00:00:03.50 bitrate=2396.8kbits/s speed=0.0105x elapsed=0:05:32.17    \nframe=  107 fps=0.3 q=46.2 size=    1024KiB time=00:00:03.50 bitrate=2396.8kbits/s speed=0.0105x elapsed=0:05:32.69    \nframe=  108 fps=0.3 q=46.0 size=    1024KiB time=00:00:03.53 bitrate=2374.2kbits/s speed=0.0106x elapsed=0:05:33.23    \nframe=  108 fps=0.3 q=46.0 size=    1024KiB time=00:00:03.53 bitrate=2374.2kbits/s speed=0.0106x elapsed=0:05:33.75    \nframe=  108 fps=0.3 q=46.0 size=    1024KiB time=00:00:03.53 bitrate=2374.2kbits/s speed=0.0106x elapsed=0:05:34.27    \nframe=  108 fps=0.3 q=46.0 size=    1024KiB time=00:00:03.53 bitrate=2374.2kbits/s speed=0.0106x elapsed=0:05:34.88    \nframe=  108 fps=0.3 q=46.0 size=    1024KiB time=00:00:03.53 bitrate=2374.2kbits/s speed=0.0105x elapsed=0:05:35.41    \nframe=  109 fps=0.3 q=46.0 size=    1024KiB time=00:00:03.56 bitrate=2352.0kbits/s speed=0.0106x elapsed=0:05:35.95    \nframe=  109 fps=0.3 q=46.0 size=    1024KiB time=00:00:03.56 bitrate=2352.0kbits/s speed=0.0106x elapsed=0:05:36.48    \nframe=  110 fps=0.3 q=43.6 size=    1024KiB time=00:00:03.60 bitrate=2330.3kbits/s speed=0.0107x elapsed=0:05:37.01    \nframe=  110 fps=0.3 q=43.6 size=    1024KiB time=00:00:03.60 bitrate=2330.3kbits/s speed=0.0107x elapsed=0:05:37.54    \nframe=  110 fps=0.3 q=43.6 size=    1024KiB time=00:00:03.60 bitrate=2330.3kbits/s speed=0.0106x elapsed=0:05:38.10    \nframe=  110 fps=0.3 q=43.6 size=    1024KiB time=00:00:03.60 bitrate=2330.3kbits/s speed=0.0106x elapsed=0:05:38.62    \nframe=  110 fps=0.3 q=43.6 size=    1024KiB time=00:00:03.60 bitrate=2330.3kbits/s speed=0.0106x elapsed=0:05:39.14    \nframe=  111 fps=0.3 q=44.6 size=    1024KiB time=00:00:03.63 bitrate=2308.9kbits/s speed=0.0107x elapsed=0:05:39.65    \nframe=  111 fps=0.3 q=44.6 size=    1024KiB time=00:00:03.63 bitrate=2308.9kbits/s speed=0.0107x elapsed=0:05:40.16    \nframe=  111 fps=0.3 q=44.6 size=    1024KiB time=00:00:03.63 bitrate=2308.9kbits/s speed=0.0107x elapsed=0:05:40.70    \nframe=  111 fps=0.3 q=44.6 size=    1024KiB time=00:00:03.63 bitrate=2308.9kbits/s speed=0.0106x elapsed=0:05:41.21    \nframe=  112 fps=0.3 q=46.0 size=    1024KiB time=00:00:03.66 bitrate=2287.9kbits/s speed=0.0107x elapsed=0:05:41.74    \nframe=  112 fps=0.3 q=46.0 size=    1024KiB time=00:00:03.66 bitrate=2287.9kbits/s speed=0.0107x elapsed=0:05:42.28    \nframe=  112 fps=0.3 q=46.0 size=    1024KiB time=00:00:03.66 bitrate=2287.9kbits/s speed=0.0107x elapsed=0:05:42.83    \nframe=  112 fps=0.3 q=46.0 size=    1024KiB time=00:00:03.66 bitrate=2287.9kbits/s speed=0.0107x elapsed=0:05:43.36    \nframe=  112 fps=0.3 q=46.0 size=    1024KiB time=00:00:03.66 bitrate=2287.9kbits/s speed=0.0107x elapsed=0:05:43.89    \nframe=  113 fps=0.3 q=45.7 size=    1024KiB time=00:00:03.70 bitrate=2267.3kbits/s speed=0.0107x elapsed=0:05:44.41    \nframe=  113 fps=0.3 q=45.7 size=    1024KiB time=00:00:03.70 bitrate=2267.3kbits/s speed=0.0107x elapsed=0:05:44.97    \nframe=  113 fps=0.3 q=45.7 size=    1024KiB time=00:00:03.70 bitrate=2267.3kbits/s speed=0.0107x elapsed=0:05:45.52    \nframe=  113 fps=0.3 q=45.7 size=    1024KiB time=00:00:03.70 bitrate=2267.3kbits/s speed=0.0107x elapsed=0:05:46.08    \nframe=  113 fps=0.3 q=45.7 size=    1024KiB time=00:00:03.70 bitrate=2267.3kbits/s speed=0.0107x elapsed=0:05:46.63    \nframe=  113 fps=0.3 q=45.7 size=    1024KiB time=00:00:03.70 bitrate=2267.3kbits/s speed=0.0107x elapsed=0:05:47.16    \nframe=  113 fps=0.3 q=45.7 size=    1024KiB time=00:00:03.70 bitrate=2267.3kbits/s speed=0.0106x elapsed=0:05:47.69    \nframe=  113 fps=0.3 q=45.7 size=    1024KiB time=00:00:03.70 bitrate=2267.3kbits/s speed=0.0106x elapsed=0:05:48.23    \nframe=  113 fps=0.3 q=45.7 size=    1024KiB time=00:00:03.70 bitrate=2267.3kbits/s speed=0.0106x elapsed=0:05:48.77    \nframe=  114 fps=0.3 q=45.8 size=    1024KiB time=00:00:03.73 bitrate=2247.0kbits/s speed=0.0107x elapsed=0:05:49.30    \nframe=  114 fps=0.3 q=45.8 size=    1024KiB time=00:00:03.73 bitrate=2247.0kbits/s speed=0.0107x elapsed=0:05:49.82    \nframe=  114 fps=0.3 q=45.8 size=    1024KiB time=00:00:03.73 bitrate=2247.0kbits/s speed=0.0107x elapsed=0:05:50.33    \nframe=  114 fps=0.3 q=45.8 size=    1024KiB time=00:00:03.73 bitrate=2247.0kbits/s speed=0.0106x elapsed=0:05:50.86    \nframe=  114 fps=0.3 q=45.8 size=    1024KiB time=00:00:03.73 bitrate=2247.0kbits/s speed=0.0106x elapsed=0:05:51.40    \nframe=  114 fps=0.3 q=45.8 size=    1024KiB time=00:00:03.73 bitrate=2247.0kbits/s speed=0.0106x elapsed=0:05:51.95    \nframe=  114 fps=0.3 q=45.8 size=    1024KiB time=00:00:03.73 bitrate=2247.0kbits/s speed=0.0106x elapsed=0:05:52.47    \nframe=  114 fps=0.3 q=45.8 size=    1024KiB time=00:00:03.73 bitrate=2247.0kbits/s speed=0.0106x elapsed=0:05:53.00    \nframe=  115 fps=0.3 q=43.8 size=    1024KiB time=00:00:03.76 bitrate=2227.2kbits/s speed=0.0107x elapsed=0:05:53.52    \nframe=  115 fps=0.3 q=43.8 size=    1024KiB time=00:00:03.76 bitrate=2227.2kbits/s speed=0.0106x elapsed=0:05:54.04    \nframe=  115 fps=0.3 q=43.8 size=    1024KiB time=00:00:03.76 bitrate=2227.2kbits/s speed=0.0106x elapsed=0:05:54.56    \nframe=  115 fps=0.3 q=43.8 size=    1024KiB time=00:00:03.76 bitrate=2227.2kbits/s speed=0.0106x elapsed=0:05:55.10    \nframe=  115 fps=0.3 q=43.8 size=    1024KiB time=00:00:03.76 bitrate=2227.2kbits/s speed=0.0106x elapsed=0:05:55.61    \nframe=  116 fps=0.3 q=44.5 size=    1024KiB time=00:00:03.80 bitrate=2207.6kbits/s speed=0.0107x elapsed=0:05:56.14    \nframe=  116 fps=0.3 q=44.5 size=    1024KiB time=00:00:03.80 bitrate=2207.6kbits/s speed=0.0107x elapsed=0:05:56.66    \nframe=  116 fps=0.3 q=44.5 size=    1024KiB time=00:00:03.80 bitrate=2207.6kbits/s speed=0.0106x elapsed=0:05:57.21    \nframe=  117 fps=0.3 q=45.2 size=    1024KiB time=00:00:03.83 bitrate=2188.4kbits/s speed=0.0107x elapsed=0:05:57.74    \nframe=  117 fps=0.3 q=45.2 size=    1024KiB time=00:00:03.83 bitrate=2188.4kbits/s speed=0.0107x elapsed=0:05:58.27    \nframe=  117 fps=0.3 q=45.2 size=    1024KiB time=00:00:03.83 bitrate=2188.4kbits/s speed=0.0107x elapsed=0:05:58.79    \nframe=  118 fps=0.3 q=45.5 size=    1024KiB time=00:00:03.86 bitrate=2169.6kbits/s speed=0.0108x elapsed=0:05:59.30    \nframe=  118 fps=0.3 q=45.5 size=    1024KiB time=00:00:03.86 bitrate=2169.6kbits/s speed=0.0107x elapsed=0:05:59.84    \nframe=  118 fps=0.3 q=45.5 size=    1024KiB time=00:00:03.86 bitrate=2169.6kbits/s speed=0.0107x elapsed=0:06:00.36    \nframe=  119 fps=0.3 q=46.2 size=    1024KiB time=00:00:03.90 bitrate=2151.0kbits/s speed=0.0108x elapsed=0:06:00.89    \nframe=  119 fps=0.3 q=46.2 size=    1024KiB time=00:00:03.90 bitrate=2151.0kbits/s speed=0.0108x elapsed=0:06:01.40    \nframe=  119 fps=0.3 q=46.2 size=    1024KiB time=00:00:03.90 bitrate=2151.0kbits/s speed=0.0108x elapsed=0:06:01.93    \nframe=  119 fps=0.3 q=46.2 size=    1024KiB time=00:00:03.90 bitrate=2151.0kbits/s speed=0.0108x elapsed=0:06:02.46    \nframe=  119 fps=0.3 q=46.2 size=    1024KiB time=00:00:03.90 bitrate=2151.0kbits/s speed=0.0107x elapsed=0:06:03.02    \nframe=  120 fps=0.3 q=43.6 size=    1024KiB time=00:00:03.93 bitrate=2132.8kbits/s speed=0.0108x elapsed=0:06:03.56    \nframe=  120 fps=0.3 q=43.6 size=    1024KiB time=00:00:03.93 bitrate=2132.8kbits/s speed=0.0108x elapsed=0:06:04.10    \nframe=  120 fps=0.3 q=43.6 size=    1024KiB time=00:00:03.93 bitrate=2132.8kbits/s speed=0.0108x elapsed=0:06:04.65    \nframe=  120 fps=0.3 q=43.6 size=    1024KiB time=00:00:03.93 bitrate=2132.8kbits/s speed=0.0108x elapsed=0:06:05.16    \nframe=  120 fps=0.3 q=43.6 size=    1024KiB time=00:00:03.93 bitrate=2132.8kbits/s speed=0.0108x elapsed=0:06:05.69    \nframe=  120 fps=0.3 q=43.6 size=    1024KiB time=00:00:03.93 bitrate=2132.8kbits/s speed=0.0107x elapsed=0:06:06.24    \nframe=  120 fps=0.3 q=43.6 size=    1024KiB time=00:00:03.93 bitrate=2132.8kbits/s speed=0.0107x elapsed=0:06:06.75    \nframe=  121 fps=0.3 q=44.4 size=    1024KiB time=00:00:03.96 bitrate=2114.9kbits/s speed=0.0108x elapsed=0:06:07.28    \nframe=  121 fps=0.3 q=44.4 size=    1024KiB time=00:00:03.96 bitrate=2114.9kbits/s speed=0.0108x elapsed=0:06:07.79    \nframe=  122 fps=0.3 q=46.0 size=    1024KiB time=00:00:04.00 bitrate=2097.2kbits/s speed=0.0109x elapsed=0:06:08.31    \nframe=  122 fps=0.3 q=46.0 size=    1024KiB time=00:00:04.00 bitrate=2097.2kbits/s speed=0.0108x elapsed=0:06:08.83    \nframe=  122 fps=0.3 q=46.0 size=    1024KiB time=00:00:04.00 bitrate=2097.2kbits/s speed=0.0108x elapsed=0:06:09.34    \nframe=  123 fps=0.3 q=45.6 size=    1024KiB time=00:00:04.03 bitrate=2079.9kbits/s speed=0.0109x elapsed=0:06:09.85    \nframe=  123 fps=0.3 q=45.6 size=    1024KiB time=00:00:04.03 bitrate=2079.9kbits/s speed=0.0109x elapsed=0:06:10.36    \nframe=  124 fps=0.3 q=43.5 size=    1024KiB time=00:00:04.06 bitrate=2062.9kbits/s speed=0.011x elapsed=0:06:10.89    \nframe=  124 fps=0.3 q=43.5 size=    1024KiB time=00:00:04.06 bitrate=2062.9kbits/s speed=0.0109x elapsed=0:06:11.40    \nframe=  124 fps=0.3 q=43.5 size=    1024KiB time=00:00:04.06 bitrate=2062.9kbits/s speed=0.0109x elapsed=0:06:11.91    \nframe=  125 fps=0.3 q=44.3 size=    1024KiB time=00:00:04.10 bitrate=2046.1kbits/s speed=0.011x elapsed=0:06:12.43    \nframe=  125 fps=0.3 q=44.3 size=    1024KiB time=00:00:04.10 bitrate=2046.1kbits/s speed=0.011x elapsed=0:06:12.95    \nframe=  126 fps=0.3 q=45.7 size=    1024KiB time=00:00:04.13 bitrate=2029.6kbits/s speed=0.0111x elapsed=0:06:13.47    \nframe=  126 fps=0.3 q=45.7 size=    1024KiB time=00:00:04.13 bitrate=2029.6kbits/s speed=0.0111x elapsed=0:06:13.98    \nframe=  127 fps=0.3 q=45.5 size=    1024KiB time=00:00:04.16 bitrate=2013.4kbits/s speed=0.0111x elapsed=0:06:14.51    \nframe=  127 fps=0.3 q=45.5 size=    1024KiB time=00:00:04.16 bitrate=2013.4kbits/s speed=0.0111x elapsed=0:06:15.02    \nframe=  128 fps=0.3 q=43.5 size=    1024KiB time=00:00:04.20 bitrate=1997.4kbits/s speed=0.0112x elapsed=0:06:15.55    \nframe=  128 fps=0.3 q=43.5 size=    1024KiB time=00:00:04.20 bitrate=1997.4kbits/s speed=0.0112x elapsed=0:06:16.07    \nframe=  129 fps=0.3 q=44.3 size=    1024KiB time=00:00:04.23 bitrate=1981.6kbits/s speed=0.0112x elapsed=0:06:16.58    \nframe=  130 fps=0.3 q=45.3 size=    1280KiB time=00:00:04.26 bitrate=2457.7kbits/s speed=0.0113x elapsed=0:06:17.11    \nframe=  130 fps=0.3 q=45.3 size=    1280KiB time=00:00:04.26 bitrate=2457.7kbits/s speed=0.0113x elapsed=0:06:17.61    \nframe=  131 fps=0.3 q=45.4 size=    1280KiB time=00:00:04.30 bitrate=2438.6kbits/s speed=0.0114x elapsed=0:06:18.12    \nframe=  131 fps=0.3 q=45.4 size=    1280KiB time=00:00:04.30 bitrate=2438.6kbits/s speed=0.0114x elapsed=0:06:18.65    \nframe=  132 fps=0.3 q=45.4 size=    1280KiB time=00:00:04.33 bitrate=2419.9kbits/s speed=0.0114x elapsed=0:06:19.17    \nframe=  132 fps=0.3 q=45.4 size=    1280KiB time=00:00:04.33 bitrate=2419.9kbits/s speed=0.0114x elapsed=0:06:19.68    \nframe=  132 fps=0.3 q=45.4 size=    1280KiB time=00:00:04.33 bitrate=2419.9kbits/s speed=0.0114x elapsed=0:06:20.19    \nframe=  133 fps=0.3 q=43.1 size=    1280KiB time=00:00:04.36 bitrate=2401.4kbits/s speed=0.0115x elapsed=0:06:20.71    \nframe=  133 fps=0.3 q=43.1 size=    1280KiB time=00:00:04.36 bitrate=2401.4kbits/s speed=0.0115x elapsed=0:06:21.23    \nframe=  134 fps=0.4 q=44.0 size=    1280KiB time=00:00:04.40 bitrate=2383.2kbits/s speed=0.0115x elapsed=0:06:21.74    \nframe=  134 fps=0.4 q=44.0 size=    1280KiB time=00:00:04.40 bitrate=2383.2kbits/s speed=0.0115x elapsed=0:06:22.26    \nframe=  135 fps=0.4 q=45.1 size=    1280KiB time=00:00:04.43 bitrate=2365.3kbits/s speed=0.0116x elapsed=0:06:22.77    \nframe=  135 fps=0.4 q=45.1 size=    1280KiB time=00:00:04.43 bitrate=2365.3kbits/s speed=0.0116x elapsed=0:06:23.29    \nframe=  135 fps=0.4 q=45.1 size=    1280KiB time=00:00:04.43 bitrate=2365.3kbits/s speed=0.0116x elapsed=0:06:23.80    \nframe=  136 fps=0.4 q=45.4 size=    1280KiB time=00:00:04.46 bitrate=2347.6kbits/s speed=0.0116x elapsed=0:06:24.32    \nframe=  136 fps=0.4 q=45.4 size=    1280KiB time=00:00:04.46 bitrate=2347.6kbits/s speed=0.0116x elapsed=0:06:24.83    \nframe=  136 fps=0.4 q=45.4 size=    1280KiB time=00:00:04.46 bitrate=2347.6kbits/s speed=0.0116x elapsed=0:06:25.35    \nframe=  137 fps=0.4 q=43.0 size=    1280KiB time=00:00:04.50 bitrate=2330.2kbits/s speed=0.0117x elapsed=0:06:25.87    \nframe=  137 fps=0.4 q=43.0 size=    1280KiB time=00:00:04.50 bitrate=2330.2kbits/s speed=0.0116x elapsed=0:06:26.39    \nframe=  138 fps=0.4 q=43.6 size=    1280KiB time=00:00:04.53 bitrate=2313.1kbits/s speed=0.0117x elapsed=0:06:26.90    \nframe=  139 fps=0.4 q=45.3 size=    1280KiB time=00:00:04.56 bitrate=2296.2kbits/s speed=0.0118x elapsed=0:06:27.42    \nframe=  139 fps=0.4 q=45.3 size=    1280KiB time=00:00:04.56 bitrate=2296.2kbits/s speed=0.0118x elapsed=0:06:27.92    \nframe=  139 fps=0.4 q=45.3 size=    1280KiB time=00:00:04.56 bitrate=2296.2kbits/s speed=0.0118x elapsed=0:06:28.45    \nframe=  140 fps=0.4 q=45.3 size=    1280KiB time=00:00:04.60 bitrate=2279.6kbits/s speed=0.0118x elapsed=0:06:28.96    \nframe=  140 fps=0.4 q=45.3 size=    1280KiB time=00:00:04.60 bitrate=2279.6kbits/s speed=0.0118x elapsed=0:06:29.48    \nframe=  141 fps=0.4 q=45.3 size=    1280KiB time=00:00:04.63 bitrate=2263.2kbits/s speed=0.0119x elapsed=0:06:29.99    \nframe=  141 fps=0.4 q=45.3 size=    1280KiB time=00:00:04.63 bitrate=2263.2kbits/s speed=0.0119x elapsed=0:06:30.51    \nframe=  142 fps=0.4 q=43.2 size=    1280KiB time=00:00:04.66 bitrate=2247.0kbits/s speed=0.0119x elapsed=0:06:31.03    \nframe=  142 fps=0.4 q=43.2 size=    1280KiB time=00:00:04.66 bitrate=2247.0kbits/s speed=0.0119x elapsed=0:06:31.55    \nframe=  143 fps=0.4 q=43.9 size=    1280KiB time=00:00:04.70 bitrate=2231.1kbits/s speed=0.012x elapsed=0:06:32.06    \nframe=  143 fps=0.4 q=43.9 size=    1280KiB time=00:00:04.70 bitrate=2231.1kbits/s speed=0.012x elapsed=0:06:32.58    \nframe=  143 fps=0.4 q=43.9 size=    1280KiB time=00:00:04.70 bitrate=2231.1kbits/s speed=0.012x elapsed=0:06:33.09    \nframe=  144 fps=0.4 q=45.4 size=    1280KiB time=00:00:04.73 bitrate=2215.4kbits/s speed=0.012x elapsed=0:06:33.61    \nframe=  144 fps=0.4 q=45.4 size=    1280KiB time=00:00:04.73 bitrate=2215.4kbits/s speed=0.012x elapsed=0:06:34.13    \nframe=  144 fps=0.4 q=45.4 size=    1280KiB time=00:00:04.73 bitrate=2215.4kbits/s speed=0.012x elapsed=0:06:34.64    \nframe=  145 fps=0.4 q=45.3 size=    1280KiB time=00:00:04.76 bitrate=2199.9kbits/s speed=0.0121x elapsed=0:06:35.16    \nframe=  145 fps=0.4 q=45.3 size=    1280KiB time=00:00:04.76 bitrate=2199.9kbits/s speed=0.012x elapsed=0:06:35.69    \nframe=  145 fps=0.4 q=45.3 size=    1280KiB time=00:00:04.76 bitrate=2199.9kbits/s speed=0.012x elapsed=0:06:36.20    \nframe=  146 fps=0.4 q=43.6 size=    1280KiB time=00:00:04.80 bitrate=2184.6kbits/s speed=0.0121x elapsed=0:06:36.71    \nframe=  146 fps=0.4 q=43.6 size=    1280KiB time=00:00:04.80 bitrate=2184.6kbits/s speed=0.0121x elapsed=0:06:37.23    \nframe=  147 fps=0.4 q=43.8 size=    1280KiB time=00:00:04.83 bitrate=2169.5kbits/s speed=0.0122x elapsed=0:06:37.74    \nframe=  149 fps=0.4 q=44.6 size=    1280KiB time=00:00:04.90 bitrate=2140.0kbits/s speed=0.0123x elapsed=0:06:38.26    \n[mp4 @ 00000224221d9740] Starting second pass: moving the moov atom to the beginning of the file\n[out#0/mp4 @ 00000224221cab00] video:1493KiB audio:0KiB subtitle:0KiB other streams:0KiB global headers:2KiB muxing overhead: 0.337988%\nframe=  150 fps=0.4 q=45.7 Lsize=    1498KiB time=00:00:04.93 bitrate=2487.9kbits/s speed=0.0124x elapsed=0:06:38.75    \nx265 [info]: frame I:      2, Avg QP:39.64  kb/s: 5590.20 \nx265 [info]: frame P:     32, Avg QP:44.25  kb/s: 3224.23 \nx265 [info]: frame B:    116, Avg QP:46.44  kb/s: 2176.48 \nx265 [info]: Weighted P-Frames: Y:0.0% UV:0.0%\n\nencoded 150 frames in 398.36s (0.38 fps), 2445.52 kb/s, Avg QP:45.88\n",
  "seconds": 399.0456645488739,
  "probe_out": {}
}